<svg width="104" height="81" viewBox="0 0 104 81" fill="none" xmlns="http://www.w3.org/2000/svg">
<g opacity="0.1">
<path d="M43.7614 3.48738C43.7614 2.93723 43.5982 2.39945 43.2926 1.94202C42.987 1.4846 42.5525 1.12808 42.0443 0.917546C41.536 0.707016 40.9767 0.651932 40.4372 0.759259C39.8976 0.866586 39.402 1.1315 39.0129 1.52051C38.6239 1.90952 38.359 2.40515 38.2517 2.94472C38.1444 3.48429 38.1994 4.04357 38.41 4.55183C38.6205 5.0601 38.977 5.49452 39.4345 5.80016C39.8919 6.1058 40.4297 6.26894 40.9798 6.26894C41.7175 6.26894 42.425 5.97588 42.9467 5.45424C43.4683 4.93259 43.7614 4.22509 43.7614 3.48738Z" fill="url(#paint0_linear_3909_221)"/>
<path d="M43.7614 15.3981C43.7614 14.848 43.5982 14.3102 43.2926 13.8528C42.987 13.3954 42.5525 13.0388 42.0443 12.8283C41.536 12.6178 40.9767 12.5627 40.4372 12.67C39.8976 12.7774 39.402 13.0423 39.0129 13.4313C38.6239 13.8203 38.359 14.3159 38.2517 14.8555C38.1444 15.3951 38.1994 15.9543 38.41 16.4626C38.6205 16.9709 38.977 17.4053 39.4345 17.7109C39.8919 18.0166 40.4297 18.1797 40.9798 18.1797C41.3456 18.1814 41.708 18.1106 42.0462 17.9714C42.3845 17.8322 42.6918 17.6274 42.9504 17.3687C43.209 17.1101 43.4139 16.8028 43.553 16.4646C43.6922 16.1263 43.763 15.7639 43.7614 15.3981Z" fill="url(#paint1_linear_3909_221)"/>
<path d="M40.9798 30.0897C42.516 30.0897 43.7614 28.8444 43.7614 27.3082C43.7614 25.772 42.516 24.5266 40.9798 24.5266C39.4436 24.5266 38.1982 25.772 38.1982 27.3082C38.1982 28.8444 39.4436 30.0897 40.9798 30.0897Z" fill="url(#paint2_linear_3909_221)"/>
<path d="M40.9798 41.987C42.516 41.987 43.7614 40.7416 43.7614 39.2054C43.7614 37.6692 42.516 36.4238 40.9798 36.4238C39.4436 36.4238 38.1982 37.6692 38.1982 39.2054C38.1982 40.7416 39.4436 41.987 40.9798 41.987Z" fill="url(#paint3_linear_3909_221)"/>
<path d="M55.6714 3.48739C55.6739 2.93422 55.5122 2.39275 55.2066 1.93159C54.9011 1.47042 54.4656 1.11031 53.9553 0.896886C53.4449 0.683459 52.8827 0.626317 52.3399 0.7327C51.797 0.839083 51.2979 1.1042 50.9059 1.49447C50.5139 1.88474 50.2465 2.3826 50.1376 2.92496C50.0288 3.46733 50.0834 4.02979 50.2945 4.54111C50.5056 5.05242 50.8637 5.48956 51.3235 5.79716C51.7833 6.10475 52.324 6.26895 52.8772 6.26896C53.6161 6.26897 54.3249 5.97631 54.8485 5.45503C55.3722 4.93374 55.6681 4.22627 55.6714 3.48739Z" fill="url(#paint4_linear_3909_221)"/>
<path d="M55.6714 15.398C55.6739 14.8449 55.5122 14.3034 55.2066 13.8422C54.9011 13.3811 54.4656 13.021 53.9553 12.8075C53.4449 12.5941 52.8827 12.537 52.3399 12.6433C51.797 12.7497 51.2979 13.0148 50.9059 13.4051C50.5139 13.7954 50.2465 14.2932 50.1376 14.8356C50.0288 15.378 50.0834 15.9404 50.2945 16.4518C50.5056 16.9631 50.8637 17.4002 51.3235 17.7078C51.7833 18.0154 52.324 18.1796 52.8772 18.1796C53.2435 18.1813 53.6066 18.1105 53.9455 17.9715C54.2845 17.8325 54.5926 17.6278 54.8522 17.3694C55.1119 17.1109 55.3179 16.8037 55.4585 16.4654C55.599 16.1271 55.6714 15.7644 55.6714 15.398Z" fill="url(#paint5_linear_3909_221)"/>
<path d="M52.8646 30.0897C54.4008 30.0897 55.6461 28.8444 55.6461 27.3082C55.6461 25.772 54.4008 24.5266 52.8646 24.5266C51.3284 24.5266 50.083 25.772 50.083 27.3082C50.083 28.8444 51.3284 30.0897 52.8646 30.0897Z" fill="url(#paint6_linear_3909_221)"/>
<path d="M52.8646 41.987C54.4008 41.987 55.6461 40.7416 55.6461 39.2054C55.6461 37.6692 54.4008 36.4238 52.8646 36.4238C51.3284 36.4238 50.083 37.6692 50.083 39.2054C50.083 40.7416 51.3284 41.987 52.8646 41.987Z" fill="url(#paint7_linear_3909_221)"/>
<path d="M67.5816 3.48743C67.584 2.93212 67.4209 2.38868 67.1131 1.92647C66.8053 1.46427 66.3667 1.10426 65.8534 0.892391C65.3401 0.680524 64.7753 0.62641 64.2311 0.736956C63.6869 0.847502 63.188 1.11769 62.7981 1.51305C62.4081 1.9084 62.1448 2.41098 62.0417 2.95665C61.9386 3.50231 62.0005 4.06631 62.2194 4.57666C62.4383 5.08702 62.8043 5.52057 63.2707 5.82199C63.7371 6.12342 64.2827 6.27903 64.8379 6.26899C65.568 6.25578 66.2639 5.9573 66.7767 5.43743C67.2895 4.91757 67.5784 4.21762 67.5816 3.48743Z" fill="url(#paint8_linear_3909_221)"/>
<path d="M67.5816 15.398C67.5841 14.8443 67.422 14.3023 67.1159 13.8409C66.8098 13.3795 66.3736 13.0194 65.8625 12.8063C65.3514 12.5933 64.7885 12.5369 64.2453 12.6443C63.7021 12.7517 63.2031 13.0181 62.8116 13.4096C62.42 13.8011 62.1537 14.3002 62.0462 14.8434C61.9388 15.3866 61.9952 15.9494 62.2083 16.4605C62.4213 16.9716 62.7814 17.4079 63.2429 17.7139C63.7043 18.02 64.2463 18.1821 64.8 18.1796C65.5377 18.1796 66.2452 17.8865 66.7669 17.3649C67.2885 16.8432 67.5816 16.1357 67.5816 15.398Z" fill="url(#paint9_linear_3909_221)"/>
<path d="M67.5562 27.3083C67.5587 26.7546 67.3966 26.2126 67.0905 25.7512C66.7845 25.2897 66.3482 24.9296 65.8371 24.7166C65.326 24.5035 64.7632 24.4471 64.22 24.5545C63.6768 24.662 63.1777 24.9283 62.7862 25.3199C62.3946 25.7114 62.1283 26.2104 62.0209 26.7536C61.9134 27.2968 61.9698 27.8597 62.1829 28.3708C62.3959 28.8819 62.756 29.3181 63.2175 29.6242C63.6789 29.9303 64.2209 30.0924 64.7746 30.0899C65.5113 30.0865 66.2169 29.7924 66.7378 29.2715C67.2587 28.7506 67.5528 28.045 67.5562 27.3083Z" fill="url(#paint10_linear_3909_221)"/>
<path d="M67.5562 39.2054C67.5561 38.6506 67.3909 38.1084 67.0815 37.6479C66.7722 37.1873 66.3328 36.8293 65.8193 36.6194C65.3057 36.4095 64.7413 36.3572 64.198 36.4691C63.6546 36.5811 63.1569 36.8523 62.7682 37.2482C62.3795 37.644 62.1175 38.1466 62.0154 38.6919C61.9134 39.2372 61.976 39.8006 62.1953 40.3102C62.4145 40.8198 62.7805 41.2526 63.2466 41.5535C63.7128 41.8543 64.2579 42.0096 64.8126 41.9996C65.5448 41.9863 66.2426 41.6861 66.7557 41.1635C67.2689 40.6409 67.5563 39.9378 67.5562 39.2054Z" fill="url(#paint11_linear_3909_221)"/>
<path d="M67.5562 49.7938C67.5561 49.239 67.3909 48.6968 67.0815 48.2362C66.7722 47.7757 66.3328 47.4177 65.8193 47.2078C65.3057 46.9978 64.7413 46.9455 64.198 47.0575C63.6546 47.1695 63.1569 47.4407 62.7682 47.8365C62.3795 48.2324 62.1175 48.735 62.0154 49.2803C61.9134 49.8256 61.976 50.3889 62.1953 50.8986C62.4145 51.4082 62.7805 51.841 63.2466 52.1418C63.7128 52.4427 64.2579 52.598 64.8126 52.588C65.5448 52.5747 66.2426 52.2745 66.7557 51.7519C67.2689 51.2293 67.5563 50.5261 67.5562 49.7938Z" fill="url(#paint12_linear_3909_221)"/>
<path d="M79.4917 3.48737C79.4942 2.93365 79.3321 2.39169 79.0261 1.93025C78.72 1.46881 78.2837 1.10871 77.7727 0.89566C77.2616 0.682608 76.6987 0.626208 76.1555 0.73362C75.6123 0.841031 75.1133 1.10741 74.7217 1.49895C74.3302 1.89048 74.0638 2.38952 73.9564 2.93272C73.849 3.47592 73.9054 4.03878 74.1184 4.54987C74.3315 5.06096 74.6916 5.49722 75.153 5.80329C75.6145 6.10936 76.1564 6.27143 76.7101 6.26893C77.4468 6.2656 78.1524 5.97148 78.6733 5.45055C79.1943 4.92963 79.4884 4.22406 79.4917 3.48737Z" fill="url(#paint13_linear_3909_221)"/>
<path d="M79.4917 15.398C79.4942 14.8443 79.3321 14.3023 79.0261 13.8409C78.72 13.3795 78.2837 13.0194 77.7727 12.8063C77.2616 12.5933 76.6987 12.5369 76.1555 12.6443C75.6123 12.7517 75.1133 13.0181 74.7217 13.4096C74.3302 13.8011 74.0638 14.3002 73.9564 14.8434C73.849 15.3866 73.9054 15.9494 74.1184 16.4605C74.3315 16.9716 74.6916 17.4079 75.153 17.7139C75.6145 18.02 76.1564 18.1821 76.7101 18.1796C77.0754 18.1796 77.4371 18.1076 77.7746 17.9678C78.1121 17.8281 78.4187 17.6232 78.677 17.3649C78.9353 17.1066 79.1402 16.7999 79.28 16.4625C79.4198 16.125 79.4917 15.7633 79.4917 15.398Z" fill="url(#paint14_linear_3909_221)"/>
<path d="M76.6595 30.0897C78.1957 30.0897 79.4411 28.8444 79.4411 27.3082C79.4411 25.772 78.1957 24.5266 76.6595 24.5266C75.1233 24.5266 73.8779 25.772 73.8779 27.3082C73.8779 28.8444 75.1233 30.0897 76.6595 30.0897Z" fill="url(#paint15_linear_3909_221)"/>
<path d="M76.6595 41.987C78.1957 41.987 79.4411 40.7416 79.4411 39.2054C79.4411 37.6692 78.1957 36.4238 76.6595 36.4238C75.1233 36.4238 73.8779 37.6692 73.8779 39.2054C73.8779 40.7416 75.1233 41.987 76.6595 41.987Z" fill="url(#paint16_linear_3909_221)"/>
<path d="M76.6595 52.5753C78.1957 52.5753 79.4411 51.33 79.4411 49.7938C79.4411 48.2576 78.1957 47.0122 76.6595 47.0122C75.1233 47.0122 73.8779 48.2576 73.8779 49.7938C73.8779 51.33 75.1233 52.5753 76.6595 52.5753Z" fill="url(#paint17_linear_3909_221)"/>
<path d="M91.3766 3.48738C91.3766 2.93723 91.2135 2.39945 90.9078 1.94202C90.6022 1.4846 90.1678 1.12808 89.6595 0.917546C89.1512 0.707016 88.592 0.651932 88.0524 0.759259C87.5128 0.866586 87.0172 1.1315 86.6282 1.52051C86.2392 1.90952 85.9743 2.40515 85.8669 2.94472C85.7596 3.48429 85.8147 4.04357 86.0252 4.55183C86.2357 5.0601 86.5923 5.49452 87.0497 5.80016C87.5071 6.1058 88.0449 6.26894 88.595 6.26894C89.3328 6.26894 90.0403 5.97588 90.5619 5.45424C91.0835 4.93259 91.3766 4.22509 91.3766 3.48738Z" fill="url(#paint18_linear_3909_221)"/>
<path d="M91.3766 15.3981C91.3766 14.848 91.2135 14.3102 90.9078 13.8528C90.6022 13.3954 90.1678 13.0388 89.6595 12.8283C89.1512 12.6178 88.592 12.5627 88.0524 12.67C87.5128 12.7774 87.0172 13.0423 86.6282 13.4313C86.2392 13.8203 85.9743 14.3159 85.8669 14.8555C85.7596 15.3951 85.8147 15.9543 86.0252 16.4626C86.2357 16.9709 86.5923 17.4053 87.0497 17.7109C87.5071 18.0166 88.0449 18.1797 88.595 18.1797C88.9608 18.1814 89.3232 18.1106 89.6615 17.9714C89.9997 17.8322 90.307 17.6274 90.5656 17.3687C90.8243 17.1101 91.0291 16.8028 91.1683 16.4646C91.3075 16.1263 91.3783 15.7639 91.3766 15.3981Z" fill="url(#paint19_linear_3909_221)"/>
<path d="M88.5443 30.0897C90.0805 30.0897 91.3258 28.8444 91.3258 27.3082C91.3258 25.772 90.0805 24.5266 88.5443 24.5266C87.008 24.5266 85.7627 25.772 85.7627 27.3082C85.7627 28.8444 87.008 30.0897 88.5443 30.0897Z" fill="url(#paint20_linear_3909_221)"/>
<path d="M88.5443 41.987C90.0805 41.987 91.3258 40.7416 91.3258 39.2054C91.3258 37.6692 90.0805 36.4238 88.5443 36.4238C87.008 36.4238 85.7627 37.6692 85.7627 39.2054C85.7627 40.7416 87.008 41.987 88.5443 41.987Z" fill="url(#paint21_linear_3909_221)"/>
<path d="M88.5443 52.5753C90.0805 52.5753 91.3258 51.33 91.3258 49.7938C91.3258 48.2576 90.0805 47.0122 88.5443 47.0122C87.008 47.0122 85.7627 48.2576 85.7627 49.7938C85.7627 51.33 87.008 52.5753 88.5443 52.5753Z" fill="url(#paint22_linear_3909_221)"/>
<path d="M103.261 3.48738C103.261 2.93723 103.098 2.39945 102.793 1.94202C102.487 1.4846 102.053 1.12808 101.544 0.917546C101.036 0.707016 100.477 0.651932 99.9372 0.759259C99.3976 0.866586 98.902 1.1315 98.5129 1.52051C98.1239 1.90952 97.859 2.40515 97.7517 2.94472C97.6444 3.48429 97.6994 4.04357 97.91 4.55183C98.1205 5.0601 98.477 5.49452 98.9345 5.80016C99.3919 6.1058 99.9297 6.26894 100.48 6.26894C101.218 6.26894 101.925 5.97588 102.447 5.45424C102.968 4.93259 103.261 4.22509 103.261 3.48738Z" fill="url(#paint23_linear_3909_221)"/>
<path d="M103.261 15.3981C103.261 14.848 103.098 14.3102 102.793 13.8528C102.487 13.3954 102.053 13.0388 101.544 12.8283C101.036 12.6178 100.477 12.5627 99.9372 12.67C99.3976 12.7774 98.902 13.0423 98.5129 13.4313C98.1239 13.8203 97.859 14.3159 97.7517 14.8555C97.6444 15.3951 97.6994 15.9543 97.91 16.4626C98.1205 16.9709 98.477 17.4053 98.9345 17.7109C99.3919 18.0166 99.9297 18.1797 100.48 18.1797C100.846 18.1814 101.208 18.1106 101.546 17.9714C101.884 17.8322 102.192 17.6274 102.45 17.3687C102.709 17.1101 102.914 16.8028 103.053 16.4646C103.192 16.1263 103.263 15.7639 103.261 15.3981Z" fill="url(#paint24_linear_3909_221)"/>
<path d="M103.211 27.3082C103.211 26.758 103.047 26.2202 102.742 25.7628C102.436 25.3054 102.002 24.9489 101.493 24.7383C100.985 24.5278 100.426 24.4727 99.8864 24.5801C99.3468 24.6874 98.8512 24.9523 98.4622 25.3413C98.0732 25.7303 97.8082 26.2259 97.7009 26.7655C97.5936 27.3051 97.6487 27.8644 97.8592 28.3726C98.0697 28.8809 98.4262 29.3153 98.8837 29.621C99.3411 29.9266 99.8789 30.0897 100.429 30.0897C101.167 30.0897 101.874 29.7967 102.396 29.275C102.918 28.7534 103.211 28.0459 103.211 27.3082Z" fill="url(#paint25_linear_3909_221)"/>
<path d="M103.211 39.2052C103.208 38.6556 103.043 38.1191 102.736 37.6633C102.428 37.2075 101.993 36.853 101.485 36.6444C100.976 36.4358 100.417 36.3825 99.8786 36.4913C99.3399 36.6 98.8455 36.8659 98.4577 37.2554C98.07 37.645 97.8063 38.1406 97.7 38.6798C97.5937 39.219 97.6495 39.7777 97.8604 40.2852C98.0713 40.7927 98.4278 41.2264 98.885 41.5315C99.3421 41.8366 99.8794 41.9994 100.429 41.9994C100.795 41.9994 101.158 41.9271 101.496 41.7865C101.835 41.6459 102.142 41.4399 102.4 41.1802C102.659 40.9206 102.863 40.6125 103.002 40.2735C103.142 39.9346 103.212 39.5715 103.211 39.2052Z" fill="url(#paint26_linear_3909_221)"/>
<path d="M103.211 49.7936C103.208 49.244 103.043 48.7074 102.736 48.2517C102.428 47.7959 101.993 47.4414 101.485 47.2328C100.976 47.0242 100.417 46.9709 99.8786 47.0797C99.3399 47.1884 98.8455 47.4543 98.4577 47.8438C98.07 48.2333 97.8063 48.729 97.7 49.2682C97.5937 49.8074 97.6495 50.3661 97.8604 50.8736C98.0713 51.3811 98.4278 51.8148 98.885 52.1199C99.3421 52.425 99.8794 52.5878 100.429 52.5878C100.795 52.5878 101.158 52.5154 101.496 52.3749C101.835 52.2343 102.142 52.0283 102.4 51.7686C102.659 51.509 102.863 51.2009 103.002 50.8619C103.142 50.523 103.212 50.1599 103.211 49.7936Z" fill="url(#paint27_linear_3909_221)"/>
</g>
<rect y="17" width="64" height="64" rx="24" fill="url(#paint28_linear_3909_221)"/>
<path opacity="0.4" d="M36.25 39.5H28.75C25.3 39.5 22.5 42.3 22.5 45.75V53.25C22.5 56.7 25.3 59.5 28.75 59.5H36.25C39.7 59.5 42.5 56.7 42.5 53.25V45.75C42.5 42.3 39.7 39.5 36.25 39.5ZM39.075 52.325C39.075 54.4 37.4 56.075 35.325 56.075H29.675C27.6 56.075 25.925 54.4 25.925 52.325V46.675C25.925 44.6 27.6 42.925 29.675 42.925H35.3125C37.3875 42.925 39.0625 44.6 39.0625 46.675V52.325H39.075Z" fill="white"/>
<path d="M28.825 37.9375V39.5H28.75C28.125 39.5 27.525 39.5875 26.95 39.7625V37.9375C26.95 37.6889 27.0488 37.4504 27.2246 37.2746C27.4004 37.0988 27.6389 37 27.8875 37C28.1361 37 28.3746 37.0988 28.5504 37.2746C28.7262 37.4504 28.825 37.6889 28.825 37.9375ZM33.4375 37.9375V39.5H31.5625V37.9375C31.5625 37.425 31.9875 37 32.5 37C33.0125 37 33.4375 37.425 33.4375 37.9375ZM38.0625 37.9375V39.7625C37.4875 39.5875 36.875 39.5 36.25 39.5H36.1875V37.9375C36.1875 37.425 36.6125 37 37.125 37C37.6375 37 38.0625 37.425 38.0625 37.9375ZM45 44.875C45 45.4 44.5875 45.8125 44.0625 45.8125H42.5V45.75C42.5 45.125 42.4125 44.5125 42.2375 43.9375H44.0625C44.5875 43.9375 45 44.3625 45 44.875ZM45 49.5C45 50.0125 44.5875 50.4375 44.0625 50.4375H42.5V48.5625H44.0625C44.5875 48.5625 45 48.975 45 49.5ZM45 54.125C45 54.6375 44.5875 55.0625 44.0625 55.0625H42.2375C42.4125 54.4875 42.5 53.875 42.5 53.25V53.1875H44.0625C44.5875 53.1875 45 53.6 45 54.125ZM38.0625 59.2375V61.0625C38.0625 61.575 37.6375 62 37.125 62C36.6125 62 36.1875 61.575 36.1875 61.0625V59.5H36.25C36.875 59.5 37.4875 59.4125 38.0625 59.2375ZM33.45 59.5V61.0625C33.45 61.3111 33.3512 61.5496 33.1754 61.7254C32.9996 61.9012 32.7611 62 32.5125 62C32.2639 62 32.0254 61.9012 31.8496 61.7254C31.6738 61.5496 31.575 61.3111 31.575 61.0625V59.5H33.45ZM28.825 59.5V61.0625C28.825 61.3111 28.7262 61.5496 28.5504 61.7254C28.3746 61.9012 28.1361 62 27.8875 62C27.6389 62 27.4004 61.9012 27.2246 61.7254C27.0488 61.5496 26.95 61.3111 26.95 61.0625V59.2375C27.525 59.4125 28.125 59.5 28.75 59.5H28.825ZM22.7625 43.9375C22.5875 44.5125 22.5 45.125 22.5 45.75V45.8125H20.9375C20.6889 45.8125 20.4504 45.7137 20.2746 45.5379C20.0988 45.3621 20 45.1236 20 44.875C20 44.6264 20.0988 44.3879 20.2746 44.2121C20.4504 44.0363 20.6889 43.9375 20.9375 43.9375H22.7625ZM22.5 48.5625V50.4375H20.9375C20.6889 50.4375 20.4504 50.3387 20.2746 50.1629C20.0988 49.9871 20 49.7486 20 49.5C20 49.2514 20.0988 49.0129 20.2746 48.8371C20.4504 48.6613 20.6889 48.5625 20.9375 48.5625H22.5ZM22.7625 55.0625H20.9375C20.6889 55.0625 20.4504 54.9637 20.2746 54.7879C20.0988 54.6121 20 54.3736 20 54.125C20 53.8764 20.0988 53.6379 20.2746 53.4621C20.4504 53.2863 20.6889 53.1875 20.9375 53.1875H22.5V53.25C22.5 53.875 22.5875 54.4875 22.7625 55.0625ZM39.075 46.6725V52.31C39.075 54.385 37.4 56.06 35.325 56.06H29.675C27.6 56.06 25.925 54.385 25.925 52.31V46.6725C25.925 44.5975 27.6 42.9225 29.675 42.9225H35.3125C36.3082 42.9225 37.2633 43.3172 37.9686 44.0201C38.6738 44.723 39.0717 45.6768 39.075 46.6725Z" fill="white"/>
<defs>
<linearGradient id="paint0_linear_3909_221" x1="43.9292" y1="0.70581" x2="37.0613" y2="2.53655" gradientUnits="userSpaceOnUse">
<stop stop-color="#F97956"/>
<stop offset="1" stop-color="#FF4579"/>
</linearGradient>
<linearGradient id="paint1_linear_3909_221" x1="43.9292" y1="12.6166" x2="37.0613" y2="14.4473" gradientUnits="userSpaceOnUse">
<stop stop-color="#F97956"/>
<stop offset="1" stop-color="#FF4579"/>
</linearGradient>
<linearGradient id="paint2_linear_3909_221" x1="43.9292" y1="24.5266" x2="37.0613" y2="26.3574" gradientUnits="userSpaceOnUse">
<stop stop-color="#F97956"/>
<stop offset="1" stop-color="#FF4579"/>
</linearGradient>
<linearGradient id="paint3_linear_3909_221" x1="43.9292" y1="36.4238" x2="37.0613" y2="38.2546" gradientUnits="userSpaceOnUse">
<stop stop-color="#F97956"/>
<stop offset="1" stop-color="#FF4579"/>
</linearGradient>
<linearGradient id="paint4_linear_3909_221" x1="55.84" y1="0.680542" x2="48.9409" y2="2.51961" gradientUnits="userSpaceOnUse">
<stop stop-color="#F97956"/>
<stop offset="1" stop-color="#FF4579"/>
</linearGradient>
<linearGradient id="paint5_linear_3909_221" x1="55.84" y1="12.5912" x2="48.9409" y2="14.4302" gradientUnits="userSpaceOnUse">
<stop stop-color="#F97956"/>
<stop offset="1" stop-color="#FF4579"/>
</linearGradient>
<linearGradient id="paint6_linear_3909_221" x1="55.8139" y1="24.5266" x2="48.9461" y2="26.3574" gradientUnits="userSpaceOnUse">
<stop stop-color="#F97956"/>
<stop offset="1" stop-color="#FF4579"/>
</linearGradient>
<linearGradient id="paint7_linear_3909_221" x1="55.8139" y1="36.4238" x2="48.9461" y2="38.2546" gradientUnits="userSpaceOnUse">
<stop stop-color="#F97956"/>
<stop offset="1" stop-color="#FF4579"/>
</linearGradient>
<linearGradient id="paint8_linear_3909_221" x1="67.7501" y1="0.68103" x2="60.8511" y2="2.52009" gradientUnits="userSpaceOnUse">
<stop stop-color="#F97956"/>
<stop offset="1" stop-color="#FF4579"/>
</linearGradient>
<linearGradient id="paint9_linear_3909_221" x1="67.7501" y1="12.5912" x2="60.8511" y2="14.4303" gradientUnits="userSpaceOnUse">
<stop stop-color="#F97956"/>
<stop offset="1" stop-color="#FF4579"/>
</linearGradient>
<linearGradient id="paint10_linear_3909_221" x1="67.7248" y1="24.5015" x2="60.8257" y2="26.3405" gradientUnits="userSpaceOnUse">
<stop stop-color="#F97956"/>
<stop offset="1" stop-color="#FF4579"/>
</linearGradient>
<linearGradient id="paint11_linear_3909_221" x1="67.7248" y1="36.4116" x2="60.8257" y2="38.2507" gradientUnits="userSpaceOnUse">
<stop stop-color="#F97956"/>
<stop offset="1" stop-color="#FF4579"/>
</linearGradient>
<linearGradient id="paint12_linear_3909_221" x1="67.7248" y1="47" x2="60.8257" y2="48.8391" gradientUnits="userSpaceOnUse">
<stop stop-color="#F97956"/>
<stop offset="1" stop-color="#FF4579"/>
</linearGradient>
<linearGradient id="paint13_linear_3909_221" x1="79.6603" y1="0.680542" x2="72.7612" y2="2.51961" gradientUnits="userSpaceOnUse">
<stop stop-color="#F97956"/>
<stop offset="1" stop-color="#FF4579"/>
</linearGradient>
<linearGradient id="paint14_linear_3909_221" x1="79.6603" y1="12.5912" x2="72.7612" y2="14.4303" gradientUnits="userSpaceOnUse">
<stop stop-color="#F97956"/>
<stop offset="1" stop-color="#FF4579"/>
</linearGradient>
<linearGradient id="paint15_linear_3909_221" x1="79.6089" y1="24.5266" x2="72.741" y2="26.3574" gradientUnits="userSpaceOnUse">
<stop stop-color="#F97956"/>
<stop offset="1" stop-color="#FF4579"/>
</linearGradient>
<linearGradient id="paint16_linear_3909_221" x1="79.6089" y1="36.4238" x2="72.741" y2="38.2546" gradientUnits="userSpaceOnUse">
<stop stop-color="#F97956"/>
<stop offset="1" stop-color="#FF4579"/>
</linearGradient>
<linearGradient id="paint17_linear_3909_221" x1="79.6089" y1="47.0122" x2="72.741" y2="48.8429" gradientUnits="userSpaceOnUse">
<stop stop-color="#F97956"/>
<stop offset="1" stop-color="#FF4579"/>
</linearGradient>
<linearGradient id="paint18_linear_3909_221" x1="91.5444" y1="0.70581" x2="84.6766" y2="2.53655" gradientUnits="userSpaceOnUse">
<stop stop-color="#F97956"/>
<stop offset="1" stop-color="#FF4579"/>
</linearGradient>
<linearGradient id="paint19_linear_3909_221" x1="91.5444" y1="12.6166" x2="84.6766" y2="14.4473" gradientUnits="userSpaceOnUse">
<stop stop-color="#F97956"/>
<stop offset="1" stop-color="#FF4579"/>
</linearGradient>
<linearGradient id="paint20_linear_3909_221" x1="91.4936" y1="24.5266" x2="84.6258" y2="26.3574" gradientUnits="userSpaceOnUse">
<stop stop-color="#F97956"/>
<stop offset="1" stop-color="#FF4579"/>
</linearGradient>
<linearGradient id="paint21_linear_3909_221" x1="91.4936" y1="36.4238" x2="84.6258" y2="38.2546" gradientUnits="userSpaceOnUse">
<stop stop-color="#F97956"/>
<stop offset="1" stop-color="#FF4579"/>
</linearGradient>
<linearGradient id="paint22_linear_3909_221" x1="91.4936" y1="47.0122" x2="84.6258" y2="48.8429" gradientUnits="userSpaceOnUse">
<stop stop-color="#F97956"/>
<stop offset="1" stop-color="#FF4579"/>
</linearGradient>
<linearGradient id="paint23_linear_3909_221" x1="103.429" y1="0.70581" x2="96.5613" y2="2.53655" gradientUnits="userSpaceOnUse">
<stop stop-color="#F97956"/>
<stop offset="1" stop-color="#FF4579"/>
</linearGradient>
<linearGradient id="paint24_linear_3909_221" x1="103.429" y1="12.6166" x2="96.5613" y2="14.4473" gradientUnits="userSpaceOnUse">
<stop stop-color="#F97956"/>
<stop offset="1" stop-color="#FF4579"/>
</linearGradient>
<linearGradient id="paint25_linear_3909_221" x1="103.378" y1="24.5266" x2="96.5105" y2="26.3574" gradientUnits="userSpaceOnUse">
<stop stop-color="#F97956"/>
<stop offset="1" stop-color="#FF4579"/>
</linearGradient>
<linearGradient id="paint26_linear_3909_221" x1="103.378" y1="36.4363" x2="96.5105" y2="38.267" gradientUnits="userSpaceOnUse">
<stop stop-color="#F97956"/>
<stop offset="1" stop-color="#FF4579"/>
</linearGradient>
<linearGradient id="paint27_linear_3909_221" x1="103.378" y1="47.0247" x2="96.5105" y2="48.8554" gradientUnits="userSpaceOnUse">
<stop stop-color="#F97956"/>
<stop offset="1" stop-color="#FF4579"/>
</linearGradient>
<linearGradient id="paint28_linear_3909_221" x1="65.4054" y1="81" x2="-5.31799" y2="73.806" gradientUnits="userSpaceOnUse">
<stop stop-color="#FFAC12"/>
<stop offset="1" stop-color="#FF30C5"/>
</linearGradient>
</defs>
</svg>
