<svg width="77" height="75" viewBox="0 0 77 75" fill="none" xmlns="http://www.w3.org/2000/svg">
<g opacity="0.15">
<path d="M30.2968 36.1679C30.2968 35.743 30.1708 35.3276 29.9347 34.9743C29.6987 34.621 29.3631 34.3457 28.9706 34.1831C28.578 34.0205 28.146 33.9779 27.7293 34.0608C27.3125 34.1437 26.9297 34.3483 26.6293 34.6488C26.3288 34.9492 26.1242 35.3321 26.0413 35.7488C25.9584 36.1655 26.0009 36.5975 26.1635 36.9901C26.3261 37.3827 26.6015 37.7182 26.9548 37.9543C27.3081 38.1903 27.7235 38.3163 28.1484 38.3163C28.7182 38.3163 29.2646 38.09 29.6675 37.6871C30.0704 37.2842 30.2968 36.7377 30.2968 36.1679Z" fill="url(#paint0_linear_3912_228)"/>
<path d="M30.2968 45.3674C30.2968 44.9425 30.1708 44.5271 29.9347 44.1738C29.6987 43.8205 29.3631 43.5451 28.9706 43.3825C28.578 43.2199 28.146 43.1774 27.7293 43.2603C27.3125 43.3432 26.9297 43.5478 26.6293 43.8482C26.3288 44.1487 26.1242 44.5315 26.0413 44.9483C25.9584 45.365 26.0009 45.797 26.1635 46.1896C26.3261 46.5821 26.6015 46.9177 26.9548 47.1537C27.3081 47.3898 27.7235 47.5158 28.1484 47.5158C28.4309 47.5171 28.7108 47.4624 28.9721 47.3549C29.2333 47.2474 29.4707 47.0892 29.6704 46.8894C29.8702 46.6897 30.0284 46.4523 30.1359 46.1911C30.2434 45.9298 30.2981 45.6499 30.2968 45.3674Z" fill="url(#paint1_linear_3912_228)"/>
<path d="M28.1484 56.715C29.3349 56.715 30.2968 55.7531 30.2968 54.5666C30.2968 53.3801 29.3349 52.4182 28.1484 52.4182C26.9619 52.4182 26 53.3801 26 54.5666C26 55.7531 26.9619 56.715 28.1484 56.715Z" fill="url(#paint2_linear_3912_228)"/>
<path d="M28.1484 65.9037C29.3349 65.9037 30.2968 64.9419 30.2968 63.7553C30.2968 62.5688 29.3349 61.6069 28.1484 61.6069C26.9619 61.6069 26 62.5688 26 63.7553C26 64.9419 26.9619 65.9037 28.1484 65.9037Z" fill="url(#paint3_linear_3912_228)"/>
<path d="M39.495 36.1679C39.497 35.7407 39.372 35.3225 39.1361 34.9663C38.9001 34.6101 38.5637 34.3319 38.1695 34.1671C37.7754 34.0023 37.3411 33.9581 36.9218 34.0403C36.5026 34.1225 36.1171 34.3272 35.8143 34.6287C35.5115 34.9301 35.305 35.3146 35.2209 35.7335C35.1368 36.1524 35.179 36.5869 35.3421 36.9818C35.5051 37.3767 35.7817 37.7143 36.1368 37.9519C36.492 38.1895 36.9096 38.3163 37.3369 38.3163C37.9075 38.3163 38.455 38.0903 38.8595 37.6877C39.2639 37.285 39.4924 36.7386 39.495 36.1679Z" fill="url(#paint4_linear_3912_228)"/>
<path d="M39.495 45.3674C39.497 44.9401 39.372 44.5219 39.1361 44.1657C38.9001 43.8095 38.5637 43.5314 38.1695 43.3666C37.7754 43.2017 37.3411 43.1576 36.9218 43.2397C36.5026 43.3219 36.1171 43.5267 35.8143 43.8281C35.5115 44.1296 35.305 44.5141 35.2209 44.933C35.1368 45.3519 35.179 45.7863 35.3421 46.1813C35.5051 46.5762 35.7817 46.9138 36.1368 47.1514C36.492 47.389 36.9096 47.5158 37.3369 47.5158C37.6198 47.5171 37.9002 47.4625 38.162 47.3551C38.4238 47.2477 38.6618 47.0896 38.8623 46.89C39.0629 46.6904 39.222 46.4531 39.3306 46.1918C39.4391 45.9305 39.495 45.6503 39.495 45.3674Z" fill="url(#paint5_linear_3912_228)"/>
<path d="M37.3271 56.715C38.5136 56.715 39.4755 55.7531 39.4755 54.5666C39.4755 53.3801 38.5136 52.4182 37.3271 52.4182C36.1406 52.4182 35.1787 53.3801 35.1787 54.5666C35.1787 55.7531 36.1406 56.715 37.3271 56.715Z" fill="url(#paint6_linear_3912_228)"/>
<path d="M37.3271 65.9037C38.5136 65.9037 39.4755 64.9419 39.4755 63.7553C39.4755 62.5688 38.5136 61.6069 37.3271 61.6069C36.1406 61.6069 35.1787 62.5688 35.1787 63.7553C35.1787 64.9419 36.1406 65.9037 37.3271 65.9037Z" fill="url(#paint7_linear_3912_228)"/>
<path d="M48.6942 36.1681C48.6961 35.7392 48.5701 35.3194 48.3324 34.9624C48.0947 34.6054 47.756 34.3274 47.3595 34.1637C46.963 34.0001 46.5268 33.9583 46.1065 34.0437C45.6861 34.1291 45.3008 34.3378 44.9996 34.6431C44.6984 34.9485 44.495 35.3367 44.4154 35.7581C44.3358 36.1796 44.3836 36.6152 44.5527 37.0094C44.7217 37.4035 45.0044 37.7384 45.3646 37.9712C45.7249 38.204 46.1463 38.3242 46.5751 38.3165C47.139 38.3063 47.6765 38.0757 48.0726 37.6742C48.4686 37.2727 48.6918 36.732 48.6942 36.1681Z" fill="url(#paint8_linear_3912_228)"/>
<path d="M48.6942 45.3674C48.6962 44.9397 48.571 44.5211 48.3346 44.1647C48.0982 43.8083 47.7612 43.5302 47.3665 43.3656C46.9717 43.2011 46.537 43.1575 46.1174 43.2405C45.6979 43.3234 45.3125 43.5292 45.01 43.8316C44.7076 44.134 44.5019 44.5194 44.4189 44.939C44.336 45.3585 44.3795 45.7933 44.5441 46.188C44.7086 46.5828 44.9868 46.9197 45.3432 47.1561C45.6996 47.3925 46.1182 47.5177 46.5458 47.5158C47.1156 47.5158 47.6621 47.2894 48.065 46.8865C48.4679 46.4836 48.6942 45.9372 48.6942 45.3674Z" fill="url(#paint9_linear_3912_228)"/>
<path d="M48.6747 54.5663C48.6766 54.1387 48.5515 53.7201 48.3151 53.3637C48.0787 53.0073 47.7417 52.7291 47.347 52.5646C46.9522 52.4 46.5175 52.3565 46.0979 52.4394C45.6784 52.5224 45.2929 52.7281 44.9905 53.0305C44.6881 53.333 44.4824 53.7184 44.3994 54.138C44.3164 54.5575 44.36 54.9922 44.5245 55.387C44.6891 55.7817 44.9672 56.1187 45.3236 56.3551C45.68 56.5915 46.0986 56.7167 46.5263 56.7147C47.0953 56.7122 47.6403 56.485 48.0426 56.0827C48.445 55.6803 48.6721 55.1353 48.6747 54.5663Z" fill="url(#paint10_linear_3912_228)"/>
<path d="M48.6747 63.7555C48.6747 63.327 48.547 62.9082 48.3081 62.5525C48.0692 62.1968 47.7298 61.9203 47.3332 61.7581C46.9365 61.596 46.5006 61.5556 46.081 61.6421C45.6613 61.7286 45.2769 61.938 44.9766 62.2438C44.6764 62.5495 44.474 62.9377 44.3952 63.3589C44.3164 63.7801 44.3648 64.2152 44.5341 64.6088C44.7035 65.0024 44.9861 65.3367 45.3462 65.5691C45.7062 65.8014 46.1272 65.9214 46.5556 65.9136C47.1212 65.9034 47.6602 65.6715 48.0565 65.2679C48.4528 64.8642 48.6748 64.3211 48.6747 63.7555Z" fill="url(#paint11_linear_3912_228)"/>
<path d="M48.6747 71.9337C48.6747 71.5052 48.547 71.0864 48.3081 70.7307C48.0692 70.375 47.7298 70.0985 47.3332 69.9363C46.9365 69.7742 46.5006 69.7338 46.081 69.8203C45.6613 69.9068 45.2769 70.1162 44.9766 70.422C44.6764 70.7277 44.474 71.1159 44.3952 71.5371C44.3164 71.9583 44.3648 72.3934 44.5341 72.787C44.7035 73.1806 44.9861 73.5149 45.3462 73.7473C45.7062 73.9797 46.1272 74.0996 46.5556 74.0919C47.1212 74.0816 47.6602 73.8497 48.0565 73.4461C48.4528 73.0425 48.6748 72.4994 48.6747 71.9337Z" fill="url(#paint12_linear_3912_228)"/>
<path d="M39.3163 71.9337C39.3163 71.5052 39.1886 71.0864 38.9497 70.7307C38.7108 70.375 38.3714 70.0985 37.9748 69.9363C37.5781 69.7742 37.1422 69.7338 36.7226 69.8203C36.3029 69.9068 35.9185 70.1162 35.6182 70.422C35.318 70.7277 35.1156 71.1159 35.0368 71.5371C34.958 71.9583 35.0064 72.3934 35.1757 72.787C35.3451 73.1806 35.6278 73.5149 35.9878 73.7473C36.3478 73.9797 36.7688 74.0996 37.1972 74.0919C37.7628 74.0816 38.3018 73.8497 38.6981 73.4461C39.0944 73.0425 39.3164 72.4994 39.3163 71.9337Z" fill="url(#paint13_linear_3912_228)"/>
<path d="M29.957 71.9337C29.9569 71.5052 29.8293 71.0864 29.5903 70.7307C29.3514 70.375 29.012 70.0985 28.6154 69.9363C28.2188 69.7742 27.7829 69.7338 27.3632 69.8203C26.9435 69.9068 26.5591 70.1162 26.2589 70.422C25.9587 70.7277 25.7563 71.1159 25.6774 71.5371C25.5986 71.9583 25.647 72.3934 25.8163 72.787C25.9857 73.1806 26.2684 73.5149 26.6284 73.7473C26.9884 73.9797 27.4094 74.0996 27.8379 74.0919C28.4034 74.0816 28.9424 73.8497 29.3387 73.4461C29.735 73.0425 29.957 72.4994 29.957 71.9337Z" fill="url(#paint14_linear_3912_228)"/>
<path d="M57.8935 36.1679C57.8954 35.7402 57.7702 35.3216 57.5338 34.9652C57.2974 34.6088 56.9605 34.3307 56.5657 34.1662C56.171 34.0016 55.7362 33.958 55.3167 34.041C54.8971 34.124 54.5117 34.3297 54.2093 34.6321C53.9069 34.9345 53.7011 35.32 53.6181 35.7395C53.5352 36.1591 53.5787 36.5938 53.7433 36.9886C53.9079 37.3833 54.186 37.7203 54.5424 37.9567C54.8988 38.1931 55.3174 38.3182 55.7451 38.3163C56.3141 38.3137 56.859 38.0866 57.2614 37.6842C57.6637 37.2819 57.8909 36.7369 57.8935 36.1679Z" fill="url(#paint15_linear_3912_228)"/>
<path d="M57.8935 45.3674C57.8954 44.9397 57.7702 44.5211 57.5338 44.1647C57.2974 43.8083 56.9605 43.5302 56.5657 43.3656C56.171 43.2011 55.7362 43.1575 55.3167 43.2405C54.8971 43.3234 54.5117 43.5292 54.2093 43.8316C53.9069 44.134 53.7011 44.5194 53.6181 44.939C53.5352 45.3585 53.5787 45.7933 53.7433 46.188C53.9079 46.5828 54.186 46.9197 54.5424 47.1561C54.8988 47.3925 55.3174 47.5177 55.7451 47.5158C56.0272 47.5158 56.3066 47.4602 56.5672 47.3522C56.8279 47.2443 57.0647 47.086 57.2642 46.8865C57.4637 46.687 57.622 46.4502 57.7299 46.1895C57.8379 45.9289 57.8935 45.6495 57.8935 45.3674Z" fill="url(#paint16_linear_3912_228)"/>
<path d="M55.706 56.715C56.8925 56.715 57.8544 55.7531 57.8544 54.5666C57.8544 53.3801 56.8925 52.4182 55.706 52.4182C54.5195 52.4182 53.5576 53.3801 53.5576 54.5666C53.5576 55.7531 54.5195 56.715 55.706 56.715Z" fill="url(#paint17_linear_3912_228)"/>
<path d="M55.706 65.9037C56.8925 65.9037 57.8544 64.9419 57.8544 63.7553C57.8544 62.5688 56.8925 61.6069 55.706 61.6069C54.5195 61.6069 53.5576 62.5688 53.5576 63.7553C53.5576 64.9419 54.5195 65.9037 55.706 65.9037Z" fill="url(#paint18_linear_3912_228)"/>
<path d="M55.706 74.082C56.8925 74.082 57.8544 73.1201 57.8544 71.9336C57.8544 70.747 56.8925 69.7852 55.706 69.7852C54.5195 69.7852 53.5576 70.747 53.5576 71.9336C53.5576 73.1201 54.5195 74.082 55.706 74.082Z" fill="url(#paint19_linear_3912_228)"/>
<path d="M67.0732 36.1679C67.0732 35.743 66.9472 35.3276 66.7111 34.9743C66.475 34.621 66.1395 34.3457 65.7469 34.1831C65.3544 34.0205 64.9224 33.9779 64.5056 34.0608C64.0889 34.1437 63.7061 34.3483 63.4056 34.6488C63.1052 34.9492 62.9005 35.3321 62.8176 35.7488C62.7348 36.1655 62.7773 36.5975 62.9399 36.9901C63.1025 37.3827 63.3779 37.7182 63.7312 37.9543C64.0845 38.1903 64.4999 38.3163 64.9248 38.3163C65.4946 38.3163 66.041 38.09 66.4439 37.6871C66.8468 37.2842 67.0732 36.7377 67.0732 36.1679Z" fill="url(#paint20_linear_3912_228)"/>
<path d="M67.0732 45.3674C67.0732 44.9425 66.9472 44.5271 66.7111 44.1738C66.475 43.8205 66.1395 43.5451 65.7469 43.3825C65.3544 43.2199 64.9224 43.1774 64.5056 43.2603C64.0889 43.3432 63.7061 43.5478 63.4056 43.8482C63.1052 44.1487 62.9005 44.5315 62.8176 44.9483C62.7348 45.365 62.7773 45.797 62.9399 46.1896C63.1025 46.5821 63.3779 46.9177 63.7312 47.1537C64.0845 47.3898 64.4999 47.5158 64.9248 47.5158C65.2073 47.5171 65.4872 47.4624 65.7485 47.3549C66.0097 47.2474 66.247 47.0892 66.4468 46.8894C66.6466 46.6897 66.8048 46.4523 66.9123 46.1911C67.0198 45.9298 67.0745 45.6499 67.0732 45.3674Z" fill="url(#paint21_linear_3912_228)"/>
<path d="M64.8857 56.715C66.0722 56.715 67.0341 55.7531 67.0341 54.5666C67.0341 53.3801 66.0722 52.4182 64.8857 52.4182C63.6992 52.4182 62.7373 53.3801 62.7373 54.5666C62.7373 55.7531 63.6992 56.715 64.8857 56.715Z" fill="url(#paint22_linear_3912_228)"/>
<path d="M64.8857 65.9037C66.0722 65.9037 67.0341 64.9419 67.0341 63.7553C67.0341 62.5688 66.0722 61.6069 64.8857 61.6069C63.6992 61.6069 62.7373 62.5688 62.7373 63.7553C62.7373 64.9419 63.6992 65.9037 64.8857 65.9037Z" fill="url(#paint23_linear_3912_228)"/>
<path d="M64.8857 74.082C66.0722 74.082 67.0341 73.1201 67.0341 71.9336C67.0341 70.747 66.0722 69.7852 64.8857 69.7852C63.6992 69.7852 62.7373 70.747 62.7373 71.9336C62.7373 73.1201 63.6992 74.082 64.8857 74.082Z" fill="url(#paint24_linear_3912_228)"/>
<path d="M76.2529 36.1679C76.2529 35.743 76.1269 35.3276 75.8908 34.9743C75.6547 34.621 75.3192 34.3457 74.9266 34.1831C74.534 34.0205 74.1021 33.9779 73.6853 34.0608C73.2686 34.1437 72.8858 34.3483 72.5853 34.6488C72.2848 34.9492 72.0802 35.3321 71.9973 35.7488C71.9144 36.1655 71.957 36.5975 72.1196 36.9901C72.2822 37.3827 72.5576 37.7182 72.9109 37.9543C73.2642 38.1903 73.6795 38.3163 74.1045 38.3163C74.6742 38.3163 75.2207 38.09 75.6236 37.6871C76.0265 37.2842 76.2529 36.7377 76.2529 36.1679Z" fill="url(#paint25_linear_3912_228)"/>
<path d="M76.2529 45.3674C76.2529 44.9425 76.1269 44.5271 75.8908 44.1738C75.6547 43.8205 75.3192 43.5451 74.9266 43.3825C74.534 43.2199 74.1021 43.1774 73.6853 43.2603C73.2686 43.3432 72.8858 43.5478 72.5853 43.8482C72.2848 44.1487 72.0802 44.5315 71.9973 44.9483C71.9144 45.365 71.957 45.797 72.1196 46.1896C72.2822 46.5821 72.5576 46.9177 72.9109 47.1537C73.2642 47.3898 73.6795 47.5158 74.1045 47.5158C74.3869 47.5171 74.6669 47.4624 74.9281 47.3549C75.1894 47.2474 75.4267 47.0892 75.6265 46.8894C75.8262 46.6897 75.9844 46.4523 76.092 46.1911C76.1995 45.9298 76.2541 45.6499 76.2529 45.3674Z" fill="url(#paint26_linear_3912_228)"/>
<path d="M76.2138 54.5666C76.2138 54.1417 76.0878 53.7263 75.8517 53.373C75.6157 53.0197 75.2801 52.7444 74.8876 52.5818C74.495 52.4191 74.063 52.3766 73.6463 52.4595C73.2295 52.5424 72.8467 52.747 72.5462 53.0475C72.2458 53.3479 72.0412 53.7307 71.9583 54.1475C71.8754 54.5642 71.9179 54.9962 72.0805 55.3888C72.2431 55.7813 72.5185 56.1169 72.8718 56.3529C73.2251 56.589 73.6405 56.715 74.0654 56.715C74.6352 56.715 75.1816 56.4887 75.5845 56.0858C75.9874 55.6829 76.2138 55.1364 76.2138 54.5666Z" fill="url(#paint27_linear_3912_228)"/>
<path d="M76.2138 63.7553C76.2118 63.3308 76.0842 62.9164 75.847 62.5644C75.6097 62.2124 75.2735 61.9386 74.8808 61.7774C74.488 61.6163 74.0564 61.5752 73.6403 61.6592C73.2242 61.7432 72.8423 61.9486 72.5428 62.2494C72.2433 62.5502 72.0397 62.9331 71.9576 63.3495C71.8755 63.766 71.9186 64.1975 72.0815 64.5895C72.2443 64.9815 72.5197 65.3165 72.8728 65.5521C73.2259 65.7877 73.6409 65.9135 74.0654 65.9135C74.3483 65.9135 74.6285 65.8576 74.8898 65.749C75.1511 65.6405 75.3884 65.4813 75.588 65.2808C75.7876 65.0803 75.9457 64.8423 76.053 64.5805C76.1604 64.3187 76.2151 64.0383 76.2138 63.7553Z" fill="url(#paint28_linear_3912_228)"/>
<path d="M76.2138 71.9336C76.2118 71.5091 76.0842 71.0947 75.847 70.7426C75.6097 70.3906 75.2735 70.1168 74.8808 69.9557C74.488 69.7946 74.0564 69.7534 73.6403 69.8374C73.2242 69.9214 72.8423 70.1268 72.5428 70.4276C72.2433 70.7285 72.0397 71.1113 71.9576 71.5278C71.8755 71.9442 71.9186 72.3757 72.0815 72.7677C72.2443 73.1597 72.5197 73.4947 72.8728 73.7303C73.2259 73.966 73.6409 74.0917 74.0654 74.0917C74.3483 74.0917 74.6285 74.0358 74.8898 73.9273C75.1511 73.8187 75.3884 73.6596 75.588 73.459C75.7876 73.2585 75.9457 73.0205 76.053 72.7587C76.1604 72.4969 76.2151 72.2165 76.2138 71.9336Z" fill="url(#paint29_linear_3912_228)"/>
</g>
<rect width="60" height="60" rx="24" fill="url(#paint30_linear_3912_228)"/>
<path d="M43.1043 33.3114C42.7106 32.9176 42.228 32.6448 41.7019 32.511C41.9438 31.509 41.6746 30.4075 40.8939 29.6268C40.4924 29.2253 40.006 28.9596 39.492 28.8286C39.7204 27.8845 39.5091 26.7684 38.6829 25.9422C38.4057 25.6651 38.0879 25.4532 37.7486 25.305L40.8943 22.1597C42.0873 20.9652 42.0895 19.0318 40.8939 17.8363C39.6998 16.6422 37.7662 16.6401 36.5702 17.8363L26.7577 27.6488L26.1838 25.1621C25.8544 23.7335 24.774 22.5949 23.3645 22.1907C21.9553 21.7864 20.4359 22.1795 19.3993 23.2166C19.3991 23.2168 19.399 23.2169 19.3988 23.217C19.2164 23.3997 19.1137 23.6477 19.1139 23.9059L19.1261 36.0083L16.285 38.8495C15.905 39.2294 15.905 39.8455 16.285 40.2254L22.5379 46.4784C22.7203 46.6609 22.9678 46.7634 23.2259 46.7634H32.2786C33.3732 46.7634 34.4025 46.3369 35.177 45.5625L43.1043 37.6351C44.2837 36.4568 44.3132 34.5186 43.1043 33.3114ZM37.9462 31.0027C38.3808 30.5682 39.0839 30.5687 39.5179 31.0027C39.9512 31.4361 39.9512 32.1412 39.5179 32.5746L37.3069 34.7855C36.8716 35.2208 36.1683 35.2187 35.7354 34.7857C35.302 34.352 35.3019 33.6468 35.7351 33.2137L37.9462 31.0027ZM34.3592 31.8378C33.9259 32.271 33.2208 32.2708 32.7875 31.8378C32.3541 31.4044 32.3541 30.6993 32.7875 30.266L35.7352 27.3182C36.1689 26.8846 36.8739 26.8852 37.3069 27.3182C37.7416 27.7528 37.7409 28.4561 37.3069 28.89C37.3069 28.89 37.3067 28.8902 37.3067 28.8902C37.3069 28.89 34.3592 31.8378 34.3592 31.8378ZM33.8011 44.1863C33.4 44.5874 32.8452 44.8174 32.2787 44.8174H23.6289L18.349 39.5374L20.7875 37.0989C20.9702 36.9162 21.0727 36.6683 21.0725 36.4099L21.0604 24.354C21.5702 23.9994 22.2191 23.8865 22.828 24.0612C23.5578 24.2705 24.1172 24.8598 24.2877 25.5994L25.2565 29.7969C25.2982 29.9774 25.3898 30.1382 25.5161 30.2648C25.5162 30.2652 26.2534 31.0027 26.2534 31.0027C27.9057 32.6551 27.9057 35.3436 26.2534 36.9959C25.8734 37.3759 25.8734 37.9919 26.2534 38.3719C26.6333 38.752 27.2495 38.7518 27.6293 38.3719C30.0404 35.9609 30.0404 32.0379 27.6293 29.6268L27.5805 29.578L37.9462 19.2123C38.3909 18.7675 39.0948 18.7891 39.5179 19.2123C39.9517 19.6461 39.952 20.3494 39.5179 20.7841L31.4115 28.89C30.2194 30.082 30.2194 32.0216 31.4117 33.2139C31.9811 33.7829 32.7206 34.0795 33.468 34.105C33.4936 34.8523 33.7902 35.5921 34.3592 36.1615C34.9281 36.7304 35.6673 37.0271 36.4144 37.053C36.4406 37.8299 36.7547 38.5565 37.3065 39.1083C37.5798 39.382 37.8962 39.5966 38.2401 39.7475L33.8011 44.1863ZM41.7288 36.2587C41.7286 36.2588 41.7284 36.259 41.7282 36.2591L40.2542 37.7332C39.8259 38.1621 39.1214 38.1718 38.6829 37.7328C38.2456 37.2955 38.2523 36.592 38.6832 36.1612L40.157 34.6874C40.5944 34.2501 41.2977 34.2569 41.7287 34.6879C42.1686 35.1271 42.1562 35.8318 41.7288 36.2587Z" fill="white"/>
<path d="M26.3529 19.6673C26.8902 19.6673 27.3258 19.2317 27.3258 18.6943V14.5257C27.2744 13.2348 25.4308 13.2357 25.3799 14.5257V18.6944C25.3799 19.2317 25.8155 19.6673 26.3529 19.6673Z" fill="white"/>
<path d="M21.496 19.3823C21.876 19.7623 22.4922 19.7622 22.872 19.3823C23.252 19.0023 23.252 18.3863 22.872 18.0063L21.8299 16.9642C21.45 16.5842 20.8339 16.5842 20.4539 16.9642C20.074 17.3442 20.074 17.9602 20.4539 18.3402L21.496 19.3823Z" fill="white"/>
<path d="M31.2088 19.3823L32.2509 18.3402C32.6309 17.9602 32.6309 17.3442 32.2509 16.9642C31.871 16.5842 31.2549 16.5842 30.875 16.9642L29.8328 18.0063C29.4529 18.3863 29.4529 19.0023 29.8328 19.3823C30.2128 19.7623 30.8289 19.7622 31.2088 19.3823Z" fill="white"/>
<defs>
<linearGradient id="paint0_linear_3912_228" x1="30.3912" y1="38.3163" x2="25.643" y2="37.8333" gradientUnits="userSpaceOnUse">
<stop stop-color="#FFAC12"/>
<stop offset="1" stop-color="#FF30C5"/>
</linearGradient>
<linearGradient id="paint1_linear_3912_228" x1="30.3912" y1="47.5158" x2="25.643" y2="47.0328" gradientUnits="userSpaceOnUse">
<stop stop-color="#FFAC12"/>
<stop offset="1" stop-color="#FF30C5"/>
</linearGradient>
<linearGradient id="paint2_linear_3912_228" x1="30.3912" y1="56.715" x2="25.643" y2="56.232" gradientUnits="userSpaceOnUse">
<stop stop-color="#FFAC12"/>
<stop offset="1" stop-color="#FF30C5"/>
</linearGradient>
<linearGradient id="paint3_linear_3912_228" x1="30.3912" y1="65.9037" x2="25.643" y2="65.4207" gradientUnits="userSpaceOnUse">
<stop stop-color="#FFAC12"/>
<stop offset="1" stop-color="#FF30C5"/>
</linearGradient>
<linearGradient id="paint4_linear_3912_228" x1="39.5898" y1="38.3163" x2="34.8201" y2="37.8311" gradientUnits="userSpaceOnUse">
<stop stop-color="#FFAC12"/>
<stop offset="1" stop-color="#FF30C5"/>
</linearGradient>
<linearGradient id="paint5_linear_3912_228" x1="39.5898" y1="47.5158" x2="34.8201" y2="47.0306" gradientUnits="userSpaceOnUse">
<stop stop-color="#FFAC12"/>
<stop offset="1" stop-color="#FF30C5"/>
</linearGradient>
<linearGradient id="paint6_linear_3912_228" x1="39.5699" y1="56.715" x2="34.8217" y2="56.232" gradientUnits="userSpaceOnUse">
<stop stop-color="#FFAC12"/>
<stop offset="1" stop-color="#FF30C5"/>
</linearGradient>
<linearGradient id="paint7_linear_3912_228" x1="39.5699" y1="65.9037" x2="34.8217" y2="65.4207" gradientUnits="userSpaceOnUse">
<stop stop-color="#FFAC12"/>
<stop offset="1" stop-color="#FF30C5"/>
</linearGradient>
<linearGradient id="paint8_linear_3912_228" x1="48.789" y1="38.3168" x2="44.0193" y2="37.8316" gradientUnits="userSpaceOnUse">
<stop stop-color="#FFAC12"/>
<stop offset="1" stop-color="#FF30C5"/>
</linearGradient>
<linearGradient id="paint9_linear_3912_228" x1="48.789" y1="47.5158" x2="44.0193" y2="47.0306" gradientUnits="userSpaceOnUse">
<stop stop-color="#FFAC12"/>
<stop offset="1" stop-color="#FF30C5"/>
</linearGradient>
<linearGradient id="paint10_linear_3912_228" x1="48.7695" y1="56.7148" x2="43.9997" y2="56.2296" gradientUnits="userSpaceOnUse">
<stop stop-color="#FFAC12"/>
<stop offset="1" stop-color="#FF30C5"/>
</linearGradient>
<linearGradient id="paint11_linear_3912_228" x1="48.7695" y1="65.914" x2="43.9997" y2="65.4288" gradientUnits="userSpaceOnUse">
<stop stop-color="#FFAC12"/>
<stop offset="1" stop-color="#FF30C5"/>
</linearGradient>
<linearGradient id="paint12_linear_3912_228" x1="48.7695" y1="74.0922" x2="43.9997" y2="73.607" gradientUnits="userSpaceOnUse">
<stop stop-color="#FFAC12"/>
<stop offset="1" stop-color="#FF30C5"/>
</linearGradient>
<linearGradient id="paint13_linear_3912_228" x1="39.4111" y1="74.0922" x2="34.6413" y2="73.607" gradientUnits="userSpaceOnUse">
<stop stop-color="#FFAC12"/>
<stop offset="1" stop-color="#FF30C5"/>
</linearGradient>
<linearGradient id="paint14_linear_3912_228" x1="30.0517" y1="74.0922" x2="25.282" y2="73.607" gradientUnits="userSpaceOnUse">
<stop stop-color="#FFAC12"/>
<stop offset="1" stop-color="#FF30C5"/>
</linearGradient>
<linearGradient id="paint15_linear_3912_228" x1="57.9883" y1="38.3163" x2="53.2185" y2="37.8311" gradientUnits="userSpaceOnUse">
<stop stop-color="#FFAC12"/>
<stop offset="1" stop-color="#FF30C5"/>
</linearGradient>
<linearGradient id="paint16_linear_3912_228" x1="57.9883" y1="47.5158" x2="53.2185" y2="47.0306" gradientUnits="userSpaceOnUse">
<stop stop-color="#FFAC12"/>
<stop offset="1" stop-color="#FF30C5"/>
</linearGradient>
<linearGradient id="paint17_linear_3912_228" x1="57.9488" y1="56.715" x2="53.2006" y2="56.232" gradientUnits="userSpaceOnUse">
<stop stop-color="#FFAC12"/>
<stop offset="1" stop-color="#FF30C5"/>
</linearGradient>
<linearGradient id="paint18_linear_3912_228" x1="57.9488" y1="65.9037" x2="53.2006" y2="65.4207" gradientUnits="userSpaceOnUse">
<stop stop-color="#FFAC12"/>
<stop offset="1" stop-color="#FF30C5"/>
</linearGradient>
<linearGradient id="paint19_linear_3912_228" x1="57.9488" y1="74.082" x2="53.2006" y2="73.599" gradientUnits="userSpaceOnUse">
<stop stop-color="#FFAC12"/>
<stop offset="1" stop-color="#FF30C5"/>
</linearGradient>
<linearGradient id="paint20_linear_3912_228" x1="67.1675" y1="38.3163" x2="62.4193" y2="37.8333" gradientUnits="userSpaceOnUse">
<stop stop-color="#FFAC12"/>
<stop offset="1" stop-color="#FF30C5"/>
</linearGradient>
<linearGradient id="paint21_linear_3912_228" x1="67.1675" y1="47.5158" x2="62.4193" y2="47.0328" gradientUnits="userSpaceOnUse">
<stop stop-color="#FFAC12"/>
<stop offset="1" stop-color="#FF30C5"/>
</linearGradient>
<linearGradient id="paint22_linear_3912_228" x1="67.1285" y1="56.715" x2="62.3803" y2="56.232" gradientUnits="userSpaceOnUse">
<stop stop-color="#FFAC12"/>
<stop offset="1" stop-color="#FF30C5"/>
</linearGradient>
<linearGradient id="paint23_linear_3912_228" x1="67.1285" y1="65.9037" x2="62.3803" y2="65.4207" gradientUnits="userSpaceOnUse">
<stop stop-color="#FFAC12"/>
<stop offset="1" stop-color="#FF30C5"/>
</linearGradient>
<linearGradient id="paint24_linear_3912_228" x1="67.1285" y1="74.082" x2="62.3803" y2="73.599" gradientUnits="userSpaceOnUse">
<stop stop-color="#FFAC12"/>
<stop offset="1" stop-color="#FF30C5"/>
</linearGradient>
<linearGradient id="paint25_linear_3912_228" x1="76.3472" y1="38.3163" x2="71.599" y2="37.8333" gradientUnits="userSpaceOnUse">
<stop stop-color="#FFAC12"/>
<stop offset="1" stop-color="#FF30C5"/>
</linearGradient>
<linearGradient id="paint26_linear_3912_228" x1="76.3472" y1="47.5158" x2="71.599" y2="47.0328" gradientUnits="userSpaceOnUse">
<stop stop-color="#FFAC12"/>
<stop offset="1" stop-color="#FF30C5"/>
</linearGradient>
<linearGradient id="paint27_linear_3912_228" x1="76.3081" y1="56.715" x2="71.56" y2="56.232" gradientUnits="userSpaceOnUse">
<stop stop-color="#FFAC12"/>
<stop offset="1" stop-color="#FF30C5"/>
</linearGradient>
<linearGradient id="paint28_linear_3912_228" x1="76.3081" y1="65.9135" x2="71.56" y2="65.4305" gradientUnits="userSpaceOnUse">
<stop stop-color="#FFAC12"/>
<stop offset="1" stop-color="#FF30C5"/>
</linearGradient>
<linearGradient id="paint29_linear_3912_228" x1="76.3081" y1="74.0917" x2="71.56" y2="73.6087" gradientUnits="userSpaceOnUse">
<stop stop-color="#FFAC12"/>
<stop offset="1" stop-color="#FF30C5"/>
</linearGradient>
<linearGradient id="paint30_linear_3912_228" x1="12.7059" y1="62.5714" x2="47.1778" y2="2.63986" gradientUnits="userSpaceOnUse">
<stop stop-color="#FF1111"/>
<stop offset="1" stop-color="#FF4747"/>
</linearGradient>
</defs>
</svg>
