<svg width="1916" height="969" viewBox="0 0 1916 969" fill="none" xmlns="http://www.w3.org/2000/svg">
<path id="Vector" d="M227.071 0H1680.77C1697.51 0 1711.09 10.6896 1711.09 23.869V122.135C1711.09 135.315 1724.67 146.004 1741.41 146.004H1885.68C1902.42 146.004 1916 156.694 1916 169.873V789.12C1916 802.299 1902.42 812.989 1885.68 812.989H1801.9C1785.16 812.989 1771.58 823.678 1771.58 836.858V828.126C1771.58 841.305 1780.4 911.995 1763.66 911.995H1620.24C1603.5 911.995 1589.92 922.684 1589.92 935.864V945.131C1589.92 958.31 1576.34 969 1559.6 969H183.621C166.879 969 153.301 958.31 153.301 945.131V822.838C153.301 809.659 139.722 798.969 122.98 798.969H30.3205C13.5788 798.969 0 788.28 0 775.1V190.862C0 177.683 13.5788 166.993 30.3205 166.993H167.345C184.163 166.993 197.767 156.224 197.665 142.984L196.764 24.009C196.649 10.7696 210.253 0 227.071 0Z" fill="white"/>
</svg>
