<svg width="36" height="36" viewBox="0 0 36 36" fill="none" xmlns="http://www.w3.org/2000/svg">
<path d="M21.3335 3.44833C21.3335 2.28 20.3868 1.33333 19.2185 1.33333H16.7835C15.6135 1.33333 14.6668 2.28 14.6668 3.44833C14.6668 4.41167 14.0068 5.23833 13.1085 5.59167C12.9668 5.64833 12.8252 5.70833 12.6868 5.76833C11.8018 6.15167 10.7502 6.035 10.0668 5.35333C9.67023 4.95702 9.1325 4.73439 8.57183 4.73439C8.01116 4.73439 7.47343 4.95702 7.07683 5.35333L5.3535 7.07667C4.95718 7.47326 4.73456 8.01099 4.73456 8.57167C4.73456 9.13234 4.95718 9.67007 5.3535 10.0667C6.03683 10.75 6.1535 11.8 5.76683 12.6867C5.70608 12.8262 5.64774 12.9668 5.59183 13.1083C5.2385 14.0067 4.41183 14.6667 3.4485 14.6667C2.28016 14.6667 1.3335 15.6133 1.3335 16.7817V19.2183C1.3335 20.3867 2.28016 21.3333 3.4485 21.3333C4.41183 21.3333 5.2385 21.9933 5.59183 22.8917C5.6485 23.0333 5.7085 23.175 5.76683 23.3133C6.15183 24.1983 6.03516 25.25 5.3535 25.9333C4.95718 26.3299 4.73456 26.8677 4.73456 27.4283C4.73456 27.989 4.95718 28.5267 5.3535 28.9233L7.07683 30.6467C7.47343 31.043 8.01116 31.2656 8.57183 31.2656C9.1325 31.2656 9.67023 31.043 10.0668 30.6467C10.7502 29.9633 11.8002 29.8467 12.6868 30.2317C12.8252 30.2933 12.9668 30.3517 13.1085 30.4083C14.0068 30.7617 14.6668 31.5883 14.6668 32.5517C14.6668 33.72 15.6135 34.6667 16.7818 34.6667H19.2185C20.3868 34.6667 21.3335 33.72 21.3335 32.5517C21.3335 31.5883 21.9935 30.7617 22.8918 30.4067C23.0335 30.3517 23.1752 30.2933 23.3135 30.2333C24.1985 29.8467 25.2502 29.965 25.9318 30.6467C26.1282 30.8432 26.3614 30.999 26.6181 31.1054C26.8747 31.2117 27.1498 31.2664 27.4277 31.2664C27.7055 31.2664 27.9806 31.2117 28.2372 31.1054C28.4939 30.999 28.7271 30.8432 28.9235 30.6467L30.6468 28.9233C31.0431 28.5267 31.2658 27.989 31.2658 27.4283C31.2658 26.8677 31.0431 26.3299 30.6468 25.9333C29.9635 25.25 29.8468 24.2 30.2318 23.3133C30.2935 23.175 30.3518 23.0333 30.4085 22.8917C30.7618 21.9933 31.5885 21.3333 32.5518 21.3333C33.7202 21.3333 34.6668 20.3867 34.6668 19.2183V16.7833C34.6668 15.615 33.7202 14.6683 32.5518 14.6683C31.5885 14.6683 30.7618 14.0083 30.4068 13.11C30.351 12.9684 30.2926 12.8278 30.2318 12.6883C29.8485 11.8033 29.9652 10.7517 30.6468 10.0683C31.0431 9.67174 31.2658 9.13401 31.2658 8.57333C31.2658 8.01266 31.0431 7.47493 30.6468 7.07833L28.9235 5.355C28.5269 4.95868 27.9892 4.73606 27.4285 4.73606C26.8678 4.73606 26.3301 4.95868 25.9335 5.355C25.2502 6.03833 24.2002 6.155 23.3135 5.77C23.174 5.70868 23.0334 5.64978 22.8918 5.59333C21.9935 5.23833 21.3335 4.41 21.3335 3.44833Z" stroke="#141414" stroke-width="2"/>
<path d="M24.6668 18C24.6668 19.7681 23.9645 21.4638 22.7142 22.714C21.464 23.9643 19.7683 24.6667 18.0002 24.6667C16.2321 24.6667 14.5364 23.9643 13.2861 22.714C12.0359 21.4638 11.3335 19.7681 11.3335 18C11.3335 16.2319 12.0359 14.5362 13.2861 13.286C14.5364 12.0357 16.2321 11.3333 18.0002 11.3333C19.7683 11.3333 21.464 12.0357 22.7142 13.286C23.9645 14.5362 24.6668 16.2319 24.6668 18Z" stroke="#141414" stroke-width="2"/>
</svg>
