<svg width="36" height="36" viewBox="0 0 36 36" fill="none" xmlns="http://www.w3.org/2000/svg">
<path d="M31.3335 23.92C30.3524 27.0367 28.4027 29.7593 25.7681 31.692C23.1334 33.6247 19.951 34.6667 16.6835 34.6667C12.6124 34.6667 8.70809 33.0494 5.82941 30.1707C2.95072 27.2921 1.3335 23.3877 1.3335 19.3167C1.33341 16.0491 2.37545 12.8667 4.30814 10.2321C6.24082 7.59741 8.96342 5.6478 12.0802 4.66666" stroke="#222222" stroke-width="2" stroke-linecap="round"/>
<path d="M34.5218 14.5783C33.6447 11.4548 31.979 8.60933 29.6849 6.31523C27.3908 4.02113 24.5453 2.3555 21.4218 1.47833C18.6818 0.71333 16.3335 3.09 16.3335 5.93333V17.09C16.3335 18.5117 17.4868 19.665 18.9085 19.665H30.0652C32.9102 19.665 35.2868 17.3167 34.5218 14.5783Z" stroke="#222222" stroke-width="2"/>
</svg>
