<svg width="32" height="36" viewBox="0 0 32 36" fill="none" xmlns="http://www.w3.org/2000/svg">
<path d="M1 8L6 1.33333H26L31 8M1 8V31.3333C1 32.2174 1.35119 33.0652 1.97631 33.6904C2.60143 34.3155 3.44928 34.6667 4.33333 34.6667H27.6667C28.5507 34.6667 29.3986 34.3155 30.0237 33.6904C30.6488 33.0652 31 32.2174 31 31.3333V8M1 8H31" stroke="#141414" stroke-width="2" stroke-linecap="round" stroke-linejoin="round"/>
<path d="M22.6668 14.6667C22.6668 16.4348 21.9645 18.1305 20.7142 19.3807C19.464 20.631 17.7683 21.3333 16.0002 21.3333C14.2321 21.3333 12.5364 20.631 11.2861 19.3807C10.0359 18.1305 9.3335 16.4348 9.3335 14.6667" stroke="#141414" stroke-width="2" stroke-linecap="round" stroke-linejoin="round"/>
</svg>
