<svg width="68" height="68" viewBox="0 0 68 68" fill="none" xmlns="http://www.w3.org/2000/svg">
<circle cx="34" cy="34" r="34" fill="#65A3FB"/>
<path fill-rule="evenodd" clip-rule="evenodd" d="M45.7013 42.5022C46.0327 42.5025 46.3514 42.6294 46.5924 42.8569C46.8333 43.0844 46.9783 43.3953 46.9978 43.7261C47.0172 44.0569 46.9096 44.3827 46.6969 44.6368C46.4842 44.8909 46.1825 45.0542 45.8534 45.0933L45.7013 45.1024H22.2987C21.9673 45.1021 21.6486 44.9752 21.4076 44.7477C21.1667 44.5202 21.0217 44.2093 21.0022 43.8785C20.9828 43.5477 21.0904 43.2219 21.3031 42.9678C21.5158 42.7137 21.8175 42.5504 22.1466 42.5113L22.2987 42.5022H45.7013ZM43.101 23C43.757 22.9998 44.3889 23.2476 44.8699 23.6936C45.3509 24.1397 45.6456 24.7511 45.6948 25.4053L45.7013 25.6003V38.6017C45.7015 39.2578 45.4537 39.8896 45.0077 40.3706C44.5616 40.8517 43.9502 41.1463 43.296 41.1955L43.101 41.202H24.899C24.243 41.2022 23.6111 40.9545 23.1301 40.5084C22.6491 40.0623 22.3544 39.4509 22.3052 38.7968L22.2987 38.6017V25.6003C22.2985 24.9443 22.5463 24.3124 22.9923 23.8314C23.4384 23.3504 24.0498 23.0557 24.704 23.0065L24.899 23H43.101ZM43.101 25.6003H24.899V38.6017H43.101V25.6003Z" fill="black"/>
</svg>
