<svg width="68" height="68" viewBox="0 0 68 68" fill="none" xmlns="http://www.w3.org/2000/svg">
<circle cx="34" cy="34" r="34" fill="#EF3D3D"/>
<path d="M44.041 24.3281C43.7631 24.1461 43.4452 24.036 43.1153 24.0074C42.7855 23.9789 42.4537 24.0328 42.1493 24.1644L32.1729 28.1414C31.9367 28.2387 31.6841 28.2887 31.4291 28.2887H25.0423C24.5062 28.2887 23.9922 28.5042 23.6131 28.8879C23.2341 29.2715 23.0211 29.7919 23.0211 30.3344V30.4981H21V35.4079H23.0211V35.6206C23.0338 36.1546 23.2523 36.6625 23.63 37.0355C24.0077 37.4086 24.5145 37.6174 25.0423 37.6173L27.4677 42.8216C27.6319 43.1721 27.8905 43.4686 28.2136 43.677C28.5368 43.8855 28.9116 43.9974 29.2948 44H30.3134C30.8467 43.9957 31.3566 43.7782 31.7322 43.3951C32.1077 43.0119 32.3184 42.494 32.3184 41.9543V37.8137L42.1493 41.7906C42.3911 41.888 42.649 41.938 42.9092 41.9379C43.313 41.9313 43.7062 41.8062 44.041 41.5778C44.307 41.3961 44.5264 41.1529 44.681 40.8683C44.8356 40.5837 44.9211 40.2659 44.9303 39.9412V26.0138C44.9289 25.6808 44.8471 25.3532 44.6921 25.0594C44.5371 24.7656 44.3136 24.5146 44.041 24.3281ZM30.2973 30.3344V35.6206H25.0423V30.3344H30.2973ZM30.2973 41.9543H29.2786L27.2898 37.6173H30.2973V41.9543ZM32.9167 35.8661C32.7247 35.7668 32.5245 35.6847 32.3184 35.6206V30.2199C32.5225 30.1772 32.7227 30.117 32.9167 30.0398L42.9092 26.0138V39.8921L32.9167 35.8661ZM44.9789 30.9072V34.9987C45.5149 34.9987 46.029 34.7832 46.408 34.3995C46.7871 34.0159 47 33.4955 47 32.953C47 32.4104 46.7871 31.8901 46.408 31.5064C46.029 31.1228 45.5149 30.9072 44.9789 30.9072Z" fill="white"/>
</svg>
