<svg width="68" height="68" viewBox="0 0 68 68" fill="none" xmlns="http://www.w3.org/2000/svg">
<circle cx="34" cy="34" r="34" fill="#FFBE3D"/>
<path d="M45.8462 33.2963L42.3643 26.1419V21.4972C42.361 20.8359 42.1008 20.2026 41.64 19.735C41.1792 19.2674 40.5552 19.0033 39.9036 19H28.0923C27.4407 19.0033 26.8166 19.2674 26.3559 19.735C25.8951 20.2026 25.6348 20.8359 25.6316 21.4972V26.1419L22.1497 33.2963C22.0302 33.5471 21.9807 33.8265 22.0068 34.1039C22.0328 34.3812 22.1333 34.6461 22.2973 34.8695L32.8291 48.8786C32.967 49.06 33.1441 49.2069 33.3468 49.3079C33.5494 49.409 33.7722 49.4615 33.9979 49.4615C34.2237 49.4615 34.4465 49.409 34.6491 49.3079C34.8517 49.2069 35.0288 49.06 35.1668 48.8786L45.6985 34.8695C45.8651 34.6473 45.9673 34.3822 45.9933 34.1043C46.0194 33.8263 45.9685 33.5464 45.8462 33.2963ZM39.4115 21.9966V24.9932H28.5844V21.9966H39.4115ZM33.9979 35.4813C33.7059 35.4813 33.4205 35.3934 33.1777 35.2288C32.9349 35.0642 32.7456 34.8302 32.6339 34.5564C32.5222 34.2826 32.4929 33.9814 32.5499 33.6907C32.6069 33.4001 32.7475 33.1331 32.9539 32.9236C33.1604 32.714 33.4235 32.5713 33.7099 32.5135C33.9963 32.4557 34.2932 32.4854 34.5629 32.5988C34.8327 32.7122 35.0633 32.9042 35.2255 33.1506C35.3878 33.397 35.4743 33.6867 35.4743 33.983C35.4743 34.3804 35.3188 34.7615 35.0419 35.0425C34.765 35.3235 34.3895 35.4813 33.9979 35.4813ZM35.4743 43.5347V38.2157C36.4594 37.8623 37.2897 37.1668 37.8183 36.2522C38.347 35.3376 38.5401 34.2628 38.3634 33.2178C38.1867 32.1727 37.6517 31.2247 36.8528 30.5413C36.054 29.8578 35.0428 29.483 33.9979 29.483C32.9531 29.483 31.9419 29.8578 31.143 30.5413C30.3442 31.2247 29.8092 32.1727 29.6325 33.2178C29.4558 34.2628 29.6488 35.3376 30.1775 36.2522C30.7062 37.1668 31.5364 37.8623 32.5215 38.2157V43.5347L25.201 33.7832L28.0308 27.9898H39.9651L42.7949 33.7832L35.4743 43.5347Z" fill="black"/>
</svg>
