<svg width="68" height="68" viewBox="0 0 68 68" fill="none" xmlns="http://www.w3.org/2000/svg">
<circle cx="34" cy="34" r="34" fill="#687CF8"/>
<path d="M26.6667 21H41.3333C41.5403 21 41.7445 21.0482 41.9296 21.1408C42.1148 21.2333 42.2758 21.3677 42.4 21.5333L46 26.3333V46.3333C46 46.687 45.8595 47.0261 45.6095 47.2761C45.3594 47.5262 45.0203 47.6667 44.6667 47.6667H23.3333C22.9797 47.6667 22.6406 47.5262 22.3905 47.2761C22.1405 47.0261 22 46.687 22 46.3333V26.3333L25.6 21.5333C25.7242 21.3677 25.8852 21.2333 26.0704 21.1408C26.2555 21.0482 26.4597 21 26.6667 21ZM43.3333 29H24.6667V45H43.3333V29ZM42.6667 26.3333L40.6667 23.6667H27.3333L25.3333 26.3333H42.6667ZM30 31.6667V34.3333C30 35.3942 30.4214 36.4116 31.1716 37.1618C31.9217 37.9119 32.9391 38.3333 34 38.3333C35.0609 38.3333 36.0783 37.9119 36.8284 37.1618C37.5786 36.4116 38 35.3942 38 34.3333V31.6667H40.6667V34.3333C40.6667 36.1014 39.9643 37.7971 38.714 39.0474C37.4638 40.2976 35.7681 41 34 41C32.2319 41 30.5362 40.2976 29.286 39.0474C28.0357 37.7971 27.3333 36.1014 27.3333 34.3333V31.6667H30Z" fill="#222222"/>
</svg>
