<svg width="70" height="64" viewBox="0 0 70 64" fill="none" xmlns="http://www.w3.org/2000/svg">
<g clip-path="url(#clip0_3301_61)">
<path d="M69.4238 32C69.4238 14.3269 55.0969 0 37.4238 0C19.7507 0 5.42383 14.3269 5.42383 32C5.42383 49.6731 19.7507 64 37.4238 64C55.0969 64 69.4238 49.6731 69.4238 32Z" fill="#E7FFD5"/>
<path d="M18.8417 22.3167C14.3167 24.3 13.55 24.6666 13.4417 24.8583C13.35 25.0416 13.3333 25.4916 13.35 27.2166C13.375 29.3416 13.375 29.35 13.575 29.5083C13.8333 29.725 14.1834 29.7084 14.4 29.475C14.5667 29.3 14.5833 29.1916 14.6001 27.6917L14.625 26.1L19.0833 28.0583C21.5334 29.1334 23.5667 30.0333 23.6083 30.0749C23.6417 30.1083 23.6583 32.65 23.65 35.7333L23.625 41.325L19.125 39.3834L14.625 37.45L14.6001 35.3167L14.5833 33.175L14.3583 33.0083C14.0083 32.725 13.65 32.7917 13.4584 33.175C13.3583 33.3583 13.3333 33.8167 13.3333 35.4333V37.4583L8.28333 39.6666C5.23333 41 3.18333 41.9417 3.11667 42.0416C3.01666 42.175 3 43.2999 3 48.7583C3 54.8834 3.00833 55.325 3.15 55.4833C3.31667 55.6833 13.6917 60.1666 13.975 60.1666C14.0833 60.1666 16.4334 59.1917 19.2 57.9999C21.9667 56.8083 24.2749 55.8333 24.3333 55.8333C24.3917 55.8333 25.0001 56.075 25.6917 56.375C26.3834 56.675 27.025 56.9167 27.1084 56.9167C27.5416 56.9167 27.8333 56.4749 27.6667 56.075C27.5667 55.8333 27.4167 55.75 25.8583 55.0833L25.0001 54.7166V49.0584C25.0001 43.6167 25.0084 43.4083 25.15 43.4499C25.2334 43.4833 27.275 44.3666 29.675 45.4166L34.0417 47.325L34.0666 52.9583C34.075 56.05 34.0666 58.5834 34.0334 58.5834C34.0083 58.5834 33.375 58.325 32.625 57.9999C31.875 57.6833 31.1917 57.4166 31.1084 57.4166C30.7167 57.425 30.4584 57.9 30.625 58.2916C30.7167 58.5167 30.9333 58.6333 32.6083 59.3583C33.6416 59.8 34.575 60.1666 34.6834 60.1666C34.975 60.1666 45.35 55.6833 45.5167 55.4833C45.6584 55.325 45.6667 54.8834 45.6667 48.7583C45.6667 43.2999 45.65 42.175 45.55 42.0416C45.4833 41.9417 43.4333 41 40.3833 39.6666L35.3334 37.4583V31.25C35.3251 26.1916 35.3083 25 35.2167 24.8417C35.125 24.675 34.0083 24.1583 29.825 22.3167C26.9167 21.0416 24.45 20 24.3333 20C24.2167 20 21.75 21.0416 18.8417 22.3167ZM28.7666 23.2249C31.1417 24.2667 33.0666 25.1334 33.0417 25.15C33.025 25.175 31.05 26.0416 28.6667 27.0916L24.3333 28.9834L20 27.0916C17.6167 26.0416 15.6417 25.175 15.625 25.15C15.575 25.1 24.0917 21.35 24.2917 21.3416C24.3833 21.3333 26.3917 22.1833 28.7666 23.2249ZM34.025 37.425C33.9833 37.4583 31.95 38.35 29.5 39.4083L25.0417 41.325L25.0167 35.7333C25.0084 32.65 25.025 30.1083 25.0583 30.0749C25.1 30.0333 27.1333 29.1334 29.5834 28.0583L34.0417 26.1L34.0666 31.7333C34.075 34.8333 34.0583 37.3916 34.025 37.425ZM18.475 40.5083C21.3333 41.7583 22.7 42.4 22.6167 42.4417C22.5583 42.475 20.5834 43.35 18.2417 44.375L13.9833 46.2417L9.675 44.3583C7.30833 43.325 5.35 42.4583 5.30833 42.4249C5.21667 42.3333 13.7583 38.5917 14 38.6167C14.1167 38.625 16.1251 39.475 18.475 40.5083ZM39.1084 40.4749C41.475 41.5167 43.3916 42.3917 43.3583 42.4249C43.3166 42.4583 41.3583 43.325 38.9917 44.3583L34.6834 46.2417L30.425 44.375C28.0833 43.35 26.1084 42.475 26.05 42.4417C25.9667 42.4 27.3417 41.75 30.2333 40.4834C32.6 39.4416 34.5999 38.5917 34.6666 38.5834C34.7333 38.5834 36.7333 39.4333 39.1084 40.4749ZM9.79167 45.7749L13.2916 47.3083L13.3167 52.95C13.325 56.3999 13.3084 58.5834 13.2583 58.5666C13.2166 58.5583 11.175 57.675 8.71667 56.625L4.25 54.7083V49.025V43.3417L5.275 43.7916C5.83334 44.0417 7.86666 44.9333 9.79167 45.7749ZM44.4166 49.0167V54.7083L39.95 56.625C37.4916 57.675 35.45 58.5583 35.4084 58.5666C35.3583 58.5834 35.3417 56.3999 35.35 52.95L35.375 47.3083L39.875 45.325C42.35 44.2416 44.3833 43.3417 44.4 43.3417C44.4083 43.3333 44.4166 45.8916 44.4166 49.0167ZM23.6666 49.0667V54.7166L19.275 56.6083C16.85 57.6417 14.8083 58.5167 14.725 58.55C14.5916 58.6 14.5833 58.3083 14.6001 52.9666L14.625 47.325L19.0833 45.375C21.5334 44.3 23.5667 43.4167 23.6083 43.4167C23.6417 43.4167 23.6666 45.9583 23.6666 49.0667Z" fill="#95E158"/>
</g>
<defs>
<clipPath id="clip0_3301_61">
<rect width="69.4237" height="64" fill="white"/>
</clipPath>
</defs>
</svg>
