<svg width="65" height="64" viewBox="0 0 65 64" fill="none" xmlns="http://www.w3.org/2000/svg">
<g clip-path="url(#clip0_3301_86)">
<path d="M65 32C65 14.3269 51.7924 0 35.5 0C19.2076 0 6 14.3269 6 32C6 49.6731 19.2076 64 35.5 64C51.7924 64 65 49.6731 65 32Z" fill="#EEF9FF"/>
<path d="M4.08218 14.2532C2.12273 14.7058 0.444504 16.5657 0.0997866 18.6616C0.0272145 19.065 0 24.6445 0 36.3741C0 50.6918 0.0272145 53.6143 0.127001 54.1555C0.453575 55.789 1.53308 57.2749 2.92103 57.9736C3.33832 58.19 3.91889 58.4065 4.20918 58.4655C4.97119 58.6131 41.4749 58.6131 42.2369 58.4655C44.1964 58.0818 45.9018 56.281 46.3191 54.1555C46.4189 53.6143 46.4461 50.6918 46.4461 36.3741C46.4461 24.6445 46.4189 19.065 46.3463 18.6616C46.0833 17.0871 44.9584 15.4537 43.6249 14.7452C42.3277 14.0563 43.6793 14.0957 23.1777 14.1056C7.66542 14.1056 4.57204 14.1351 4.08218 14.2532ZM41.9104 15.867C43.0897 16.113 44.0512 16.9198 44.5683 18.1106L44.8586 18.7699L44.8858 22.2828L44.913 25.8057H23.2231H1.53308L1.5603 22.2828L1.58751 18.7699L1.8778 18.1106C2.37674 16.9592 3.35646 16.113 4.46318 15.8769C5.03469 15.7489 41.3207 15.7489 41.9104 15.867ZM44.904 40.448C44.904 54.7657 44.9312 54.0375 44.3325 55.0608C43.9333 55.73 43.4616 56.1728 42.7268 56.5467L42.1372 56.8517H23.2231H4.30897L3.71932 56.5467C2.98453 56.1728 2.51281 55.73 2.11366 55.0608C1.51494 54.0375 1.54216 54.7657 1.54216 40.448V27.4785H23.2231H44.904V40.448Z" fill="#24ABF5"/>
<path d="M5.17998 18.2384C3.65597 18.5533 2.81232 20.3836 3.48361 21.9187C4.20026 23.562 6.20506 23.9162 7.37529 22.6075C7.75629 22.1843 8.07379 21.3479 8.07379 20.787C8.07379 20.1474 7.75629 19.3798 7.29364 18.9174C6.66771 18.2876 5.98735 18.0711 5.17998 18.2384ZM6.2867 20.2064C6.54978 20.5115 6.59514 20.8264 6.43185 21.22C6.29578 21.5447 5.78777 21.8006 5.45213 21.7218C4.68105 21.5349 4.54498 20.3639 5.25255 19.9801C5.6517 19.7636 5.96013 19.8325 6.2867 20.2064Z" fill="#24ABF5"/>
<path d="M12.156 18.4354C11.258 18.8683 10.7046 19.7933 10.7046 20.8363C10.7137 23.1587 13.2809 24.3002 14.7958 22.6568C16.3108 21.0135 15.2494 18.2287 13.1085 18.2287C12.7548 18.2287 12.4191 18.3074 12.156 18.4354ZM13.7345 20.2065C14.061 20.6297 14.052 21.102 13.7073 21.4858C13.5077 21.6924 13.3535 21.7712 13.1085 21.7712C12.3556 21.7712 11.9565 20.738 12.4826 20.1574C12.8455 19.7736 13.417 19.7933 13.7345 20.2065Z" fill="#24ABF5"/>
<path d="M19.6941 18.3961C19.4583 18.4846 19.1045 18.7503 18.8686 19.0062C17.3537 20.6494 18.406 23.4343 20.5469 23.4441C21.8894 23.4441 22.9508 22.2928 22.9508 20.8365C22.9508 19.016 21.2907 17.7859 19.6941 18.3961ZM21.1456 20.187C21.4994 20.5806 21.5175 21.1415 21.1728 21.5154C20.6376 22.0862 19.6851 21.6532 19.6851 20.8365C19.6851 20.3346 20.0842 19.9016 20.5469 19.9016C20.7918 19.9016 20.946 19.9804 21.1456 20.187Z" fill="#24ABF5"/>
<path d="M24.0848 32.5167C23.8671 32.7332 23.7491 33.2646 22.2614 40.9302C20.819 48.3596 20.683 49.1468 20.7918 49.3928C21.0458 49.9635 21.7171 50.0324 22.0527 49.5108C22.1616 49.3632 22.7513 46.4801 23.7582 41.2942C24.6109 36.9054 25.3094 33.2449 25.3094 33.1563C25.3094 32.8709 25.1098 32.5167 24.8831 32.4084C24.5565 32.251 24.3478 32.2805 24.0848 32.5167Z" fill="#24ABF5"/>
<path d="M17.8705 35.8132C17.3716 36.197 12.7814 40.4973 12.6998 40.6645C12.5274 41.0089 12.6 41.3336 12.9084 41.6682C13.3983 42.1995 17.7798 46.2144 18.0247 46.3522C18.2969 46.5097 18.823 46.3522 18.9591 46.0766C19.1224 45.7421 19.0589 45.3091 18.8049 45.004C18.6597 44.8467 17.671 43.9118 16.6005 42.9277C15.5301 41.9339 14.6411 41.0974 14.6229 41.0581C14.6139 41.0188 15.521 40.1331 16.6459 39.0999C17.7707 38.0568 18.7777 37.1122 18.8684 36.9941C19.1224 36.6989 19.1043 36.1871 18.823 35.892C18.56 35.6066 18.188 35.5771 17.8705 35.8132Z" fill="#24ABF5"/>
<path d="M27.6225 35.892C27.3413 36.1871 27.3232 36.6989 27.5772 36.9941C27.6679 37.1122 28.6748 38.0568 29.7997 39.0999C30.9246 40.1331 31.8317 41.0188 31.8226 41.0581C31.8045 41.0974 30.9155 41.9339 29.8451 42.9277C28.7746 43.9118 27.7858 44.8467 27.6497 45.004C27.3867 45.3091 27.3232 45.7421 27.4865 46.0766C27.6225 46.3522 28.1487 46.5097 28.4208 46.3522C28.6658 46.2144 33.0473 42.1995 33.5372 41.6682C33.8456 41.3336 33.9182 41.0089 33.7458 40.6645C33.6642 40.4973 29.074 36.197 28.575 35.8132C28.2575 35.5771 27.8856 35.6066 27.6225 35.892Z" fill="#24ABF5"/>
</g>
<defs>
<clipPath id="clip0_3301_86">
<rect width="65" height="64" fill="white"/>
</clipPath>
</defs>
</svg>
