<svg width="71" height="64" viewBox="0 0 71 64" fill="none" xmlns="http://www.w3.org/2000/svg">
<g clip-path="url(#clip0_3301_49)">
<path d="M70.5083 32C70.5083 14.3269 56.1814 0 38.5083 0C20.8352 0 6.5083 14.3269 6.5083 32C6.5083 49.6731 20.8352 64 38.5083 64C56.1814 64 70.5083 49.6731 70.5083 32Z" fill="#FFF0C6"/>
<path d="M19.7181 14.1973C16.3563 14.5709 12.8123 15.8824 9.95447 17.7847C8.53859 18.7316 7.72205 19.4005 6.51465 20.6166C2.74473 24.3778 0.564429 29.1032 0.0779882 34.5236C-0.21735 37.8244 0.364641 41.603 1.62418 44.678C2.80553 47.5532 4.27354 49.7422 6.55808 52.018C8.57333 54.042 10.1629 55.1713 12.6299 56.3699C17.0687 58.5069 21.8636 59.0888 26.8235 58.0899C30.2373 57.4037 34.0072 55.5708 36.5958 53.347C37.1083 52.8954 37.2386 52.6522 37.1343 52.3047C37.0649 52.0702 28.2134 43.1579 27.8659 42.9755C27.5098 42.7843 27.3794 42.8192 26.6238 43.2795C25.2339 44.1307 23.8962 44.513 22.2718 44.5217C20.0047 44.5303 18.059 43.7225 16.4519 42.1242C14.8276 40.4999 14.0458 38.554 14.0545 36.2087C14.0632 34.402 14.6191 32.7689 15.7136 31.3182C16.9645 29.6678 18.4498 28.7644 20.9081 28.1738C21.5769 28.0087 21.5422 28.3996 21.5422 21.0943V14.6056L21.2903 14.3537C21.0123 14.0757 20.8994 14.067 19.7181 14.1973ZM20.0655 21.2594V26.8534L19.3532 27.0793C15.8613 28.2085 13.3422 31.1098 12.7168 34.7234C12.6126 35.2967 12.5864 35.8352 12.6212 36.6864C12.6733 38.1892 12.934 39.2403 13.5854 40.5519C14.593 42.5846 16.0002 43.9918 18.0241 44.9907C19.3358 45.6335 20.3956 45.8941 21.8896 45.9549C23.6877 46.0244 25.0428 45.7378 26.6411 44.9386L27.4403 44.539L31.4013 48.5001L35.3623 52.461L34.9888 52.7738C33.5816 53.9291 30.9409 55.3363 28.9518 55.9964C26.3979 56.8477 25.0776 57.0562 22.2371 57.0562C19.4314 57.0562 17.7896 56.7869 15.3748 55.953C9.59833 53.9552 4.72524 49.1341 2.7013 43.4185C1.88477 41.1165 1.57206 39.388 1.50257 36.9036C1.38965 32.7602 2.36252 28.999 4.41253 25.6286C7.1835 21.0683 11.5441 17.7327 16.5909 16.2994C17.503 16.0388 19.3011 15.6827 19.7441 15.6739L20.0655 15.6653V21.2594Z" fill="#FDBE0C"/>
<path d="M23.2449 14.3015L23.0191 14.5273V21.1638C23.0191 28.8426 22.8888 27.9826 24.1223 28.2954C25.764 28.7209 26.9281 29.3724 28.0573 30.5104C29.2126 31.6744 29.8294 32.7689 30.2637 34.4453C30.4113 34.9926 30.5329 35.2966 30.6632 35.4009C30.8456 35.5485 31.2713 35.5572 37.4126 35.5572H43.9709L44.2227 35.3053C44.5181 35.0099 44.5181 34.9839 44.3443 33.5593C43.8666 29.6765 42.4247 26.1237 40.0793 22.9966C39.6884 22.4667 39.1498 21.8065 38.8979 21.5373C38.4984 21.129 38.3855 21.0509 38.1248 21.0509C37.7253 21.0509 37.4386 21.3375 37.4386 21.7545C37.4386 22.0063 37.5515 22.1888 38.1422 22.875C40.5397 25.672 42.1293 29.0945 42.7808 32.8644C42.8503 33.2726 42.9111 33.707 42.9111 33.846V34.0805L37.3083 34.0632L31.6968 34.037L31.445 33.2814C30.9325 31.7612 30.2115 30.5885 29.0996 29.4767C27.9617 28.3388 26.6674 27.557 25.1647 27.0879L24.409 26.8534V21.2593V15.6652H24.6956C24.8433 15.6652 25.3297 15.7261 25.7554 15.8042C28.5524 16.282 31.2278 17.333 33.608 18.8792C34.2073 19.2614 34.7459 19.5741 34.8066 19.5741C35.0064 19.5741 35.4147 19.3309 35.4755 19.1833C35.5537 18.9748 35.5363 18.6274 35.4407 18.4536C35.2409 18.0714 32.5395 16.4731 31.0106 15.8303C28.8912 14.9443 26.3634 14.3189 24.2179 14.1451C23.4883 14.0843 23.4621 14.093 23.2449 14.3015Z" fill="#FDBE0C"/>
<path d="M30.6716 37.1817C30.5413 37.2947 30.4197 37.5987 30.272 38.1807C30.0635 39.0493 29.5945 40.1437 29.1168 40.8908C28.6042 41.6986 28.3002 41.3078 33.4165 46.4328C35.9356 48.9519 38.1071 51.0627 38.2462 51.1148C38.6457 51.2799 38.889 51.1321 39.5491 50.3243C42.2072 47.0756 43.9185 42.9756 44.3788 38.754C44.5091 37.5812 44.5004 37.4858 44.2572 37.2512L44.0487 37.034H37.4558C31.297 37.034 30.8453 37.0428 30.6716 37.1817ZM42.876 39.0319C42.5981 42.0722 41.0519 45.8942 38.9932 48.6825L38.4634 49.3949L34.485 45.4165L30.5065 41.4381L30.8888 40.665C31.106 40.2393 31.3839 39.5618 31.5142 39.1623L31.74 38.4239H37.3428H42.9369L42.876 39.0319Z" fill="#FDBE0C"/>
</g>
<defs>
<clipPath id="clip0_3301_49">
<rect width="70.5085" height="64" fill="white"/>
</clipPath>
</defs>
</svg>
