<svg width="71" height="64" viewBox="0 0 71 64" fill="none" xmlns="http://www.w3.org/2000/svg">
<g clip-path="url(#clip0_3301_71)">
<path d="M70.5083 32C70.5083 14.3269 56.1814 0 38.5083 0C20.8352 0 6.5083 14.3269 6.5083 32C6.5083 49.6731 20.8352 64 38.5083 64C56.1814 64 70.5083 49.6731 70.5083 32Z" fill="#FFEDE8"/>
<path d="M18.4634 15.122C14.7799 19.0745 10.5999 21.2577 5.68514 21.7956C5.03326 21.8681 3.88481 21.8888 2.77763 21.8577L0.935894 21.7956L0.729011 22.075C0.511672 22.3441 0.511673 22.3647 0.553077 30.8387C0.594482 39.6025 0.594482 39.6231 1.04979 41.9614C2.37418 48.6869 6.73015 55.1535 13.1969 60.0165C15.4007 61.672 19.3015 64 19.8706 64C20.6051 64 24.8059 61.403 27.3202 59.3958C29.9483 57.2954 33.5593 53.4774 33.5593 52.8049C33.5593 52.2565 32.8868 51.8943 32.4832 52.2359C32.39 52.2979 31.9555 52.8049 31.5003 53.3429C29.9483 55.2157 27.6616 57.3678 25.5095 59.0026C23.8229 60.2648 20.2843 62.4481 19.8809 62.4481C19.5809 62.4481 16.4871 60.5959 14.8316 59.4268C12.4311 57.7196 9.5444 55.0501 7.93032 53.0326C5.44717 49.9182 3.41919 45.8828 2.61215 42.427C2.04308 39.9853 2.04308 40.0059 2.00168 31.356L1.96027 23.2856L3.32606 23.3166C7.41297 23.4097 11.5207 22.2406 14.9041 20.0264C16.363 19.0641 17.0873 18.4744 18.5462 17.0465L19.8498 15.7635L20.9465 16.7464C22.9953 18.5984 24.837 19.7987 27.2064 20.8644C30.1138 22.1578 33.6421 22.9649 37.253 23.1614L37.7187 23.1821L37.7704 28.9038L37.8221 34.636L38.0705 34.8326C38.3912 35.1015 38.6602 35.0809 38.9602 34.7704L39.219 34.5221V28.4176V22.313L38.981 22.0647C38.7637 21.8267 38.6499 21.8059 37.0462 21.6922C33.2178 21.4334 30.0828 20.6678 27.165 19.2608C24.9301 18.1847 23.2953 17.0258 21.3604 15.1426C20.4293 14.2321 20.0464 13.9218 19.8498 13.9218C19.6429 13.9218 19.3324 14.2012 18.4634 15.122Z" fill="#FF4E43"/>
<path d="M19.4978 19.8401C19.3322 19.9746 18.8251 20.3989 18.37 20.7817C15.1521 23.5545 10.6616 25.4066 6.21252 25.8102C5.25018 25.9033 4.99158 25.9653 4.81565 26.1309C4.60876 26.3378 4.60876 26.4724 4.57767 31.5422C4.54673 37.264 4.6294 39.1575 5.02267 41.1026C5.73658 44.6102 7.4955 48.2419 9.99943 51.3769C10.9719 52.5876 13.1759 54.7604 14.5417 55.8674C15.7832 56.8607 18.3286 58.5887 19.2804 59.0853L19.8703 59.3957L20.4703 59.0853C21.4119 58.5887 23.9572 56.8607 25.1988 55.8674C25.83 55.3605 26.9267 54.3672 27.6407 53.6533C29.9272 51.3666 31.5413 49.1524 32.8554 46.4623C34.1591 43.8136 34.8627 41.2682 35.0799 38.4435C35.2248 36.457 35.2145 26.3172 35.0696 25.9861C34.9248 25.6859 34.5834 25.5516 33.6315 25.4584C32.783 25.3756 30.7757 24.972 29.7824 24.6823C26.6577 23.7822 23.7089 22.2923 21.0394 20.285C20.5531 19.9125 20.0668 19.6125 19.9737 19.6125C19.8703 19.6125 19.6633 19.7159 19.4978 19.8401ZM20.7704 21.8784C23.4088 23.7925 26.9267 25.448 30.0618 26.2344C30.5791 26.3689 31.6035 26.5758 32.338 26.7L33.6832 26.9277L33.7141 32.1424C33.7555 39.0023 33.6315 40.3267 32.6795 43.1926C31.0344 48.1385 27.2475 52.8669 22.1465 56.3331C21.4844 56.7884 20.7083 57.2954 20.4083 57.4712L19.8703 57.7817L19.3529 57.4816C16.5179 55.8054 13.4138 53.198 11.3652 50.7561C8.93365 47.8591 7.10237 44.1859 6.42972 40.875C6.07799 39.116 6.0055 37.7503 6.0055 32.4424V27.3105L7.35066 27.1345C11.686 26.5448 15.8867 24.7237 19.0839 22.0543C19.5287 21.6818 19.9426 21.3714 19.984 21.3714C20.0358 21.3714 20.3876 21.599 20.7704 21.8784Z" fill="#FF4E43"/>
<path d="M26.803 33.653C26.7203 33.6841 24.4129 35.9396 21.6814 38.6609L16.7149 43.617L14.8526 41.7545C12.8555 39.7473 12.6901 39.6438 12.2347 40.1301C11.7796 40.606 11.8622 40.7198 14.273 43.1411C16.3941 45.262 16.5598 45.3966 16.8391 45.3345C17.0357 45.2828 18.7429 43.648 22.4367 39.9645C28.055 34.3463 27.993 34.4187 27.5583 33.9116C27.3514 33.6737 27.0409 33.5702 26.803 33.653Z" fill="#FF4E43"/>
<path d="M37.8943 39.1368C37.7184 39.2816 37.6252 39.6024 37.4598 40.6577C37.2735 41.8373 37.2632 42.0132 37.3976 42.2201C37.6252 42.5615 38.0598 42.6443 38.3806 42.396C38.6082 42.2304 38.6807 42.0442 38.8255 41.2268C39.0738 39.8301 39.0635 39.323 38.7841 39.1265C38.484 38.9091 38.1529 38.9195 37.8943 39.1368Z" fill="#FF4E43"/>
<path d="M36.2704 45.9967C35.9703 46.1105 35.898 46.2244 35.3392 47.4142C34.8839 48.3972 34.8528 48.5006 34.9771 48.7903C35.1219 49.1318 35.4427 49.2663 35.8669 49.1628C36.0738 49.1111 36.2291 48.8835 36.6429 48.035C36.9222 47.4556 37.1499 46.8347 37.1499 46.6589C37.1499 46.1933 36.6843 45.8414 36.2704 45.9967Z" fill="#FF4E43"/>
</g>
<defs>
<clipPath id="clip0_3301_71">
<rect width="70.5085" height="64" fill="white"/>
</clipPath>
</defs>
</svg>
